<svg class="quadrantField" width="65" height="65"><path class="bkg" d="M52.8,62.9H10.5c-5.5,0-10-4.5-10-10V10.5c0-5.5,4.5-10,10-10h42.3c5.5,0,10,4.5,10,10v42.3 C62.9,58.4,58.4,62.9,52.8,62.9z"></path><g class="area tl"><circle cx="11.8" cy="11.8" r="9.8"></circle><path id="XMLID_37_" d="M12.1,9.2h-1.7v7.4H8.5V9.2H6.7V7.4h5.5V9.2z"></path><path id="XMLID_39_" d="M12.9,16.6V7.4h1.9v7.4h2.7v1.7H12.9z"></path></g><g class="area tr"><circle cx="51.5" cy="11.8" r="9.8"></circle><path id="XMLID_13_" d="M51.1,9.2h-1.7v7.4h-1.9V9.2h-1.8V7.4h5.5V9.2z"></path><path id="XMLID_15_" d="M55.5,16.6l-1.1-3.3h-0.5v3.3h-1.9V8.7l1.4-1.3h3.9v5.8h-1l1.2,3.3H55.5z M55.3,11.6V9.2h-1.5v2.4H55.3z"></path></g><g class="area c"><circle cx="31.7" cy="31.7" r="9.8"></circle><path id="XMLID_19_" d="M32.5,34.7v-1.1h1.9v1.6l-1.3,1.3H29v-7.9l1.4-1.3h4v3.5h-1.9V29h-1.5v5.7H32.5z"></path></g><g class="area bl active"><circle cx="11.8" cy="51.5" r="9.8"></circle><path id="XMLID_30_" d="M12.3,52.5v3.8H8L6.7,55v-7.9h3.9l1.3,1.2v2.5L11,51.6L12.3,52.5z M10,50.8v-1.9H8.6v1.9H10z M10.3,54.5 v-2.1H8.6v2.1H10.3z"></path><path id="XMLID_34_" d="M13.1,56.3v-9.2H15v7.4h2.7v1.7H13.1z"></path></g><g class="area br"><circle cx="51.5" cy="51.5" r="9.8"></circle><path id="XMLID_22_" d="M51.2,52.5v3.8h-4.3L45.6,55v-7.9h3.9l1.3,1.2v2.5l-0.9,0.7L51.2,52.5z M48.9,50.8v-1.9h-1.4v1.9H48.9z M49.2,54.5v-2.1h-1.7v2.1H49.2z"></path><path id="XMLID_26_" d="M55.5,56.3L54.4,53h-0.5v3.3H52v-7.9l1.4-1.3h3.9v5.8h-1l1.2,3.3H55.5z M55.4,51.2v-2.4h-1.5v2.4H55.4z"></path></g></svg>
