<?xml version="1.0" encoding="UTF-8" standalone="no"?>
<svg
   xmlns:dc="http://purl.org/dc/elements/1.1/"
   xmlns:cc="http://creativecommons.org/ns#"
   xmlns:rdf="http://www.w3.org/1999/02/22-rdf-syntax-ns#"
   xmlns:svg="http://www.w3.org/2000/svg"
   xmlns="http://www.w3.org/2000/svg"
   xmlns:sodipodi="http://sodipodi.sourceforge.net/DTD/sodipodi-0.dtd"
   xmlns:inkscape="http://www.inkscape.org/namespaces/inkscape"
   width="500"
   height="500"
   viewBox="0 0 132.29166 132.29167"
   version="1.1"
   id="svg1511"
   inkscape:version="1.0.1 (3bc2e813f5, 2020-09-07)"
   sodipodi:docname="carveco.svg">
  <defs
     id="defs1505" />
  <sodipodi:namedview
     id="base"
     pagecolor="#ffffff"
     bordercolor="#666666"
     borderopacity="1.0"
     inkscape:pageopacity="0.0"
     inkscape:pageshadow="2"
     inkscape:zoom="0.98994949"
     inkscape:cx="274.89698"
     inkscape:cy="238.28128"
     inkscape:document-units="mm"
     inkscape:current-layer="g2183"
     inkscape:document-rotation="0"
     showgrid="false"
     units="px"
     inkscape:window-width="1920"
     inkscape:window-height="1017"
     inkscape:window-x="1912"
     inkscape:window-y="-8"
     inkscape:window-maximized="1" />
  <metadata
     id="metadata1508">
    <rdf:RDF>
      <cc:Work
         rdf:about="">
        <dc:format>image/svg+xml</dc:format>
        <dc:type
           rdf:resource="http://purl.org/dc/dcmitype/StillImage" />
        <dc:title />
      </cc:Work>
    </rdf:RDF>
  </metadata>
  <g
     inkscape:label="Layer 1"
     inkscape:groupmode="layer"
     id="layer1">
    <g
       id="g2183"
       transform="matrix(0.59669996,0,0,0.59669996,6.6284515,16.424868)">
      <path
         style="fill:#808080;stroke-width:0.264583"
         d="M 6.3144988,47.123693 C 17.913539,15.014603 44.44945,-9.8227723 77.197019,-19.221728 c 10.157847,-2.915428 18.712426,-4.097367 29.667441,-4.098986 17.37223,-0.0026 32.86852,3.634883 47.99822,11.266666 15.36405,7.7499837 28.02845,18.5197227 38.21184,32.495113 1.26207,1.732028 2.19969,3.235309 2.0836,3.340618 -0.3498,0.317331 -14.79455,7.66545 -15.06855,7.66545 -0.1397,0 -0.84062,-0.798949 -1.55762,-1.775449 -2.24232,-3.05389 -5.4199,-6.706701 -8.58378,-9.867551 C 142.63085,-7.4870643 100.72431,-14.156767 66.20523,3.2927547 51.47313,10.739884 38.887678,22.188905 30.25783,35.994204 c -1.835722,2.936629 -5.380721,9.710899 -6.377931,12.18782 l -0.6125,1.521359 h -8.94239 -8.9424002 z"
         id="path2118" />
      <path
         style="fill:#9f9f9f;stroke-width:0.264583"
         d="m 9.6556489,49.770053 c 2.4281601,-0.0436 6.4762801,-0.0437 8.9958301,-1.8e-4 2.51955,0.0435 0.53288,0.0792 -4.41483,0.0793 -4.9477102,9e-5 -7.0091602,-0.0355 -4.5810001,-0.0791 z M 173.75525,23.972654 l -0.50402,-0.59532 0.59531,0.504031 c 0.32743,0.27722 0.59532,0.545108 0.59532,0.595318 0,0.21173 -0.21295,0.0554 -0.68661,-0.504029 z M 38.975189,24.203485 c 0,-0.0549 0.20836,-0.2633 0.463021,-0.463021 0.419648,-0.32911 0.429009,-0.319749 0.0999,0.0999 -0.345641,0.44073 -0.56292,0.58089 -0.56292,0.36313 z m 130.829351,-4.464172 -1.84498,-1.918229 1.91823,1.84499 c 1.05502,1.01474 1.91822,1.877951 1.91822,1.918229 0,0.194072 -0.27783,-0.0633 -1.99147,-1.84499 z M 42.150189,20.781004 c 0,-0.0455 0.386959,-0.432491 0.859899,-0.859891 l 0.85989,-0.77711 -0.777099,0.859901 c -0.724369,0.80154 -0.94269,0.981509 -0.94269,0.7771 z m 4.365631,-4.15054 c 0.26339,-0.291039 0.538419,-0.529169 0.611179,-0.529169 0.0728,0 -0.0832,0.23813 -0.346599,0.529169 -0.26339,0.291039 -0.538421,0.529169 -0.611182,0.529169 -0.0728,0 0.0832,-0.23813 0.346602,-0.529169 z m 119.16104,-0.727609 c -0.32911,-0.41964 -0.31976,-0.429001 0.0999,-0.0999 0.44073,0.345641 0.58089,0.56292 0.36313,0.56292 -0.0549,0 -0.2633,-0.20836 -0.46302,-0.463029 z M 48.235609,15.207654 c 0,-0.0549 0.208359,-0.2633 0.463021,-0.463021 0.419639,-0.32911 0.429,-0.319749 0.0999,0.0999 -0.345649,0.440729 -0.562919,0.58089 -0.562919,0.36313 z m 140.460001,-0.36313 c -0.32911,-0.41964 -0.31976,-0.429001 0.0999,-0.0999 0.44073,0.345639 0.58089,0.562909 0.36313,0.562909 -0.0549,0 -0.2633,-0.208359 -0.46302,-0.463021 z m -24.87085,-0.529169 c -0.3291,-0.41964 -0.31974,-0.429001 0.0999,-0.0999 0.44073,0.345641 0.58089,0.56292 0.36311,0.56292 -0.0549,0 -0.2633,-0.20836 -0.46302,-0.463029 z M 25.481439,13.884735 c 0,-0.0549 0.20836,-0.2633 0.46302,-0.463021 0.419649,-0.32911 0.42901,-0.319749 0.0999,0.0999 -0.34564,0.44073 -0.56292,0.58089 -0.56292,0.36313 z M 187.37268,13.257024 c -0.32911,-0.41964 -0.31975,-0.429001 0.0999,-0.0999 0.25466,0.199718 0.46303,0.408078 0.46303,0.463018 0,0.21776 -0.21729,0.0776 -0.56293,-0.36313 z M 28.127278,10.941925 c 0.34177,-0.363802 0.68094,-0.661461 0.7537,-0.661461 0.0728,0 -0.147349,0.297659 -0.489119,0.661461 -0.341781,0.363799 -0.68094,0.661458 -0.7537,0.661458 -0.0728,0 0.147341,-0.297659 0.489119,-0.661458 z m 156.877872,-0.330732 -0.64142,-0.7276093 0.7276,0.6414403 c 0.40018,0.35279 0.7276,0.680209 0.7276,0.727601 0,0.207508 -0.21426,0.0386 -0.81378,-0.641432 z M 33.418939,5.6997567 c 0,-0.0455 0.386959,-0.432491 0.859899,-0.859891 l 0.85989,-0.77711 -0.777099,0.859901 c -0.724371,0.801539 -0.94269,0.981509 -0.94269,0.7771 z m 145.500801,-1.17398 -0.64143,-0.727602 0.72761,0.641432 c 0.40018,0.352788 0.72759,0.680209 0.72759,0.727599 0,0.20751 -0.21426,0.0386 -0.81377,-0.641429 z M 36.329359,3.0368147 c 0,-0.0549 0.208359,-0.263299 0.463021,-0.463019 0.41965,-0.3291 0.429,-0.31975 0.0999,0.0999 -0.345649,0.44073 -0.562919,0.58089 -0.562919,0.363119 z M 176.26018,2.1445257 c -0.32911,-0.41964 -0.31975,-0.429 0.0999,-0.0999 0.44073,0.34564 0.58088,0.56291 0.36312,0.56291 -0.0549,0 -0.2633,-0.20836 -0.46302,-0.46302 z M 38.181439,1.4493157 c 0,-0.0549 0.20836,-0.2633 0.463021,-0.46302001 0.419648,-0.3291 0.429009,-0.31975 0.0999,0.0999 -0.345641,0.44073 -0.56292,0.58089 -0.562921,0.36312 z M 174.67268,0.82161569 c -0.32911,-0.41965 -0.31975,-0.42901 0.0999,-0.0999 0.44073,0.34564001 0.58088,0.56292001 0.36312,0.56292001 -0.0549,0 -0.2633,-0.20836 -0.46302,-0.46302001 z M 122.26932,-4.9815243 c 0.191,-0.0764 0.4192,-0.067 0.50712,0.0209 0.0879,0.0879 -0.0684,0.15045 -0.34726,0.13896 -0.30823,-0.0127 -0.37092,-0.0754 -0.15986,-0.15985 z m -1.5875,-0.26458 c 0.191,-0.0764 0.4192,-0.067 0.50712,0.0209 0.0879,0.0879 -0.0683,0.15045 -0.34726,0.13897 -0.30823,-0.0127 -0.37092,-0.0754 -0.15986,-0.15985 z m -26.722904,-0.26459 c 0.190989,-0.0764 0.419201,-0.067 0.507111,0.0209 0.0879,0.0879 -0.0684,0.15045 -0.34726,0.13896 -0.308229,-0.0127 -0.37092,-0.0754 -0.159851,-0.15985 z m 24.870824,0 c 0.19099,-0.0764 0.4192,-0.067 0.50712,0.0209 0.0879,0.0879 -0.0683,0.15045 -0.34727,0.13896 -0.30822,-0.0127 -0.37092,-0.0754 -0.15985,-0.15985 z m -22.754163,-0.26458 c 0.191,-0.0764 0.419201,-0.067 0.507119,0.0209 0.0879,0.0879 -0.0684,0.15045 -0.34726,0.13896 -0.308229,-0.0127 -0.370919,-0.0754 -0.159859,-0.15985 z m 20.620963,0.005 c 0.1819,-0.0734 0.47955,-0.0734 0.66145,0 0.18191,0.0734 0.0331,0.13346 -0.33073,0.13346 -0.3638,0 -0.51263,-0.0601 -0.33072,-0.13346 z m -18.256244,-0.26408 c 0.181901,-0.0734 0.47955,-0.0734 0.661451,0 0.181909,0.0734 0.0331,0.13345 -0.330722,0.13345 -0.36381,0 -0.512638,-0.0601 -0.330729,-0.13345 z m 15.610404,0 c 0.1819,-0.0734 0.47956,-0.0734 0.66146,0 0.1819,0.0734 0.0331,0.13345 -0.33073,0.13345 -0.3638,0 -0.51263,-0.0601 -0.33073,-0.13345 z m -11.77396,-0.278861 c 0.40019,-0.0606 1.05503,-0.0606 1.45521,0 0.40018,0.0606 0.0728,0.110221 -0.7276,0.110221 -0.80037,0 -1.12779,-0.0496 -0.72761,-0.110221 z m 6.87917,0 c 0.40018,-0.0606 1.05503,-0.0606 1.45521,0 0.40018,0.0606 0.0728,0.110221 -0.72761,0.110221 -0.80036,0 -1.12778,-0.0496 -0.7276,-0.110221 z M 91.313077,-22.444033 c 0.191,-0.07643 0.419198,-0.06703 0.507119,0.02088 0.0879,0.08792 -0.0684,0.150452 -0.34726,0.138964 -0.308229,-0.0127 -0.370919,-0.07539 -0.159859,-0.15985 z m 30.691663,0 c 0.19099,-0.07643 0.4192,-0.06703 0.50712,0.02088 0.0879,0.08792 -0.0684,0.150452 -0.34727,0.138964 -0.30822,-0.0127 -0.37092,-0.07539 -0.15985,-0.15985 z m -1.85208,-0.264583 c 0.191,-0.07643 0.4192,-0.06703 0.50711,0.02088 0.0879,0.08792 -0.0684,0.150453 -0.34726,0.138965 -0.30823,-0.0127 -0.37092,-0.07539 -0.15985,-0.159851 z M 95.529877,-22.96768 c 0.181898,-0.0734 0.47956,-0.0734 0.661461,0 0.181898,0.0734 0.0331,0.133453 -0.330732,0.133453 -0.363799,0 -0.51263,-0.06005 -0.330729,-0.133453 z m 21.960413,0 c 0.1819,-0.0734 0.47955,-0.0734 0.66145,0 0.18191,0.0734 0.0331,0.133453 -0.33073,0.133453 -0.3638,0 -0.51263,-0.06005 -0.33072,-0.133453 z m -18.912672,-0.272709 c 0.257429,-0.06708 0.614619,-0.06267 0.79375,0.0098 0.179128,0.07248 -0.0315,0.127362 -0.468051,0.12197 -0.43657,-0.0054 -0.583131,-0.06469 -0.325699,-0.131773 z m 15.874992,0 c 0.25743,-0.06708 0.61462,-0.06267 0.79375,0.0098 0.17913,0.07248 -0.0315,0.127362 -0.46805,0.12197 -0.43657,-0.0054 -0.58313,-0.06469 -0.3257,-0.131773 z m -9.12279,-0.277394 c 0.91521,-0.05181 2.34396,-0.05139 3.175,0.0011 0.83104,0.05234 0.0822,0.09473 -1.66401,0.09421 -1.74625,-5.29e-4 -2.4262,-0.04334 -1.51099,-0.09516 z"
         id="path2116" />
      <path
         style="fill:#ad984f;stroke-width:0.264583"
         d="M 96.654356,189.27615 C 76.678179,187.28495 58.222248,180.068 42.306989,168.02431 35.070519,162.54819 27.18397,154.66043 21.742589,147.45672 10.384609,132.42019 3.3970389,115.37763 0.8641787,96.534623 0.24173871,91.904013 -0.1012513,79.942583 0.26482872,75.632545 l 0.21348999,-2.513539 19.96274029,-0.132292 19.96273,-0.132289 0.850709,-3.731911 c 1.415672,-6.210329 2.91678,-10.496579 5.445432,-15.548829 3.26177,-6.51705 6.74801,-11.420581 11.8506,-16.66834 5.72488,-5.887771 10.9953,-9.743091 18.279769,-13.37169 6.30732,-3.141861 12.657418,-5.18758 19.427177,-6.258552 4.116974,-0.651309 13.001334,-0.793419 17.427884,-0.27876 14.08826,1.637961 26.40059,7.23437 37.25992,16.936011 2.89682,2.58799 7.51662,7.792709 7.18106,8.09027 -0.12151,0.10776 -3.57363,1.906831 -7.67134,3.997931 l -7.4504,3.801999 -2.2069,-2.11011 C 128.45615,35.912173 110.76087,31.385094 94.342686,35.827615 69.983509,42.418854 54.703978,65.145094 57.6692,90.374483 l 0.164259,1.39764 H 37.286788 16.740109 l 0.13306,0.59532 c 0.0732,0.32742 0.37386,2.14312 0.66818,4.03489 1.25164,8.045057 3.22677,14.962257 6.35778,22.265887 6.413589,14.96081 17.499839,28.53198 31.094139,38.06372 27.103041,19.00349 61.530392,21.75359 91.005872,7.26965 2.61937,-1.28713 5.96167,-3.09321 7.42734,-4.0135 3.66413,-2.30073 11.20283,-7.45535 11.21546,-7.66862 0.0116,-0.19592 0.66143,0.0326 -16.26425,-5.72053 l -12.43811,-4.22781 -2.64314,1.19232 c -5.68713,2.56547 -13.04082,4.58778 -19.57647,5.38364 -3.88303,0.47285 -12.0472,0.40702 -16.007082,-0.12908 -14.261007,-1.93067 -27.04832,-8.02039 -37.28279,-17.75526 C 56.3155,127.149 51.60304,121.22171 48.913138,116.57681 l -0.727808,-1.25677 h 10.107628 10.107631 l 2.36002,2.49369 c 8.61581,9.10379 19.772117,14.43435 32.520951,15.53873 10.362,0.89761 22.09213,-2.17013 30.93828,-8.09119 l 2.22006,-1.48597 29.12128,9.69922 c 16.01672,5.33457 29.16625,9.73778 29.22118,9.78492 0.0549,0.0471 -0.59992,1.05785 -1.45522,2.24602 -18.23245,25.32833 -46.2615,41.2017 -77.4905,43.8843 -4.21816,0.36235 -15.05106,0.29819 -19.182284,-0.11361 z"
         id="path2114" />
      <path
         style="fill:#97864a;stroke-width:0.264583"
         d="m 102.9382,173.08856 c 0.1819,-0.0734 0.47956,-0.0734 0.66146,0 0.1819,0.0734 0.0331,0.13346 -0.33073,0.13346 -0.3638,0 -0.51263,-0.0601 -0.33073,-0.13346 z m 6.61459,0 c 0.1819,-0.0734 0.47955,-0.0734 0.66145,0 0.18191,0.0734 0.0331,0.13346 -0.33073,0.13346 -0.3638,0 -0.51263,-0.0601 -0.33072,-0.13346 z m 70.70989,-12.65706 c 0.34178,-0.3638 0.68094,-0.66146 0.7537,-0.66146 0.0728,0 -0.14733,0.29766 -0.48912,0.66146 -0.34177,0.3638 -0.68094,0.66146 -0.7537,0.66146 -0.0728,0 0.14735,-0.29766 0.48912,-0.66146 z M 31.302278,158.57942 c -1.08413,-1.09141 -1.911599,-1.98438 -1.838838,-1.98438 0.0728,0 1.019299,0.89297 2.103419,1.98438 1.084119,1.0914 1.911601,1.98437 1.838841,1.98437 -0.0728,0 -1.019302,-0.89297 -2.103422,-1.98437 z m 151.606232,-0.74425 c 0,-0.0455 0.38697,-0.43249 0.85991,-0.8599 l 0.85989,-0.7771 -0.77711,0.85989 c -0.72436,0.80155 -0.94269,0.98151 -0.94269,0.77711 z m -79.68919,-8.56462 c 0.191,-0.0764 0.4192,-0.067 0.50712,0.0209 0.0879,0.0879 -0.0684,0.15045 -0.34726,0.13897 -0.30823,-0.0127 -0.37092,-0.0754 -0.15986,-0.15985 z m 5.27513,0.005 c 0.1819,-0.0734 0.47956,-0.0734 0.66146,0 0.1819,0.0734 0.0331,0.13346 -0.33073,0.13346 -0.3638,0 -0.51263,-0.0601 -0.33073,-0.13346 z m -63.855852,-0.94924 -0.504028,-0.59531 0.59531,0.50403 c 0.559448,0.47366 0.715758,0.68659 0.504028,0.68659 -0.0502,0 -0.318098,-0.26789 -0.59531,-0.59531 z m -3.704169,-3.70416 -0.504031,-0.59532 0.595312,0.50403 c 0.559448,0.47366 0.715759,0.6866 0.504029,0.6866 -0.0502,0 -0.318101,-0.26789 -0.59531,-0.59531 z m 63.607811,-11.2271 c 0.19099,-0.0764 0.4192,-0.067 0.50712,0.0209 0.0879,0.0879 -0.0684,0.15045 -0.34727,0.13897 -0.30822,-0.0127 -0.37092,-0.0754 -0.15985,-0.15985 z M 0.1023287,76.271455 c 0.0127,-0.308221 0.0754,-0.370919 0.15985,-0.15985 0.0764,0.190989 0.067,0.419198 -0.0209,0.507118 -0.0879,0.0879 -0.15046001,-0.0683 -0.13897001,-0.347268 z M 0.57255871,72.918364 C 0.68266872,72.808295 9.6957288,72.748785 20.601579,72.786126 l 19.828819,0.0679 -20.029019,0.132238 c -11.0159602,0.0727 -19.93893029,0.0422 -19.82882029,-0.0679 z M 59.083528,36.076834 c 0.790422,-0.80036 1.496661,-1.455201 1.569421,-1.455201 0.0728,0 -0.514419,0.654841 -1.30484,1.455201 -0.790419,0.80037 -1.496661,1.455211 -1.569419,1.455211 -0.0728,0 0.514409,-0.654841 1.304838,-1.455211 z m 91.776652,-2.18281 c -0.32911,-0.41964 -0.31975,-0.429001 0.0999,-0.0999 0.44073,0.345639 0.58088,0.562909 0.36312,0.562909 -0.0549,0 -0.2633,-0.208359 -0.46302,-0.463021 z"
         id="path2112" />
      <path
         style="fill:#877846;stroke-width:0.264583"
         d="m 106.64545,189.74541 c 0.32912,-0.0633 0.80537,-0.0609 1.05834,0.005 0.25296,0.0662 -0.0163,0.118 -0.5984,0.11506 -0.58208,-0.003 -0.78905,-0.0571 -0.45994,-0.1204 z m -7.924034,-0.25819 c 0.190989,-0.0764 0.419201,-0.067 0.507111,0.0209 0.0879,0.0879 -0.0683,0.15046 -0.34726,0.13897 -0.308229,-0.0127 -0.37092,-0.0754 -0.159851,-0.15985 z m 15.874994,0 c 0.191,-0.0764 0.4192,-0.067 0.50711,0.0209 0.0879,0.0879 -0.0683,0.15046 -0.34726,0.13897 -0.30823,-0.0127 -0.37092,-0.0754 -0.15985,-0.15985 z m -9.39959,-16.41924 c 0.84206,-0.0527 2.15175,-0.0522 2.91042,0.001 0.75867,0.0533 0.0697,0.0964 -1.53102,0.0958 -1.60073,-5.3e-4 -2.22146,-0.0442 -1.3794,-0.0968 z m 8.34125,-0.24951 c 0.191,-0.0764 0.4192,-0.067 0.50712,0.0209 0.0879,0.0879 -0.0684,0.15046 -0.34726,0.13897 -0.30823,-0.0127 -0.37092,-0.0754 -0.15986,-0.15985 z m 65.40169,-11.03166 c 0,-0.0549 0.20836,-0.2633 0.46303,-0.46302 0.41965,-0.32911 0.429,-0.31975 0.0999,0.0999 -0.34563,0.44073 -0.56292,0.58088 -0.56292,0.36312 z M 33.649778,160.89452 c -0.32911,-0.41965 -0.319749,-0.429 0.0999,-0.0999 0.44073,0.34565 0.58089,0.56292 0.36313,0.56292 -0.0549,0 -0.2633,-0.20836 -0.463021,-0.46302 z m -4.88618,-4.89479 -0.504028,-0.59531 0.59531,0.50402 c 0.327419,0.27722 0.595309,0.54511 0.595309,0.59532 0,0.21173 -0.212931,0.0554 -0.686591,-0.50403 z m 155.732412,0.23083 c 0,-0.0549 0.20836,-0.2633 0.46303,-0.46302 0.41965,-0.32911 0.429,-0.31975 0.0999,0.0999 -0.34563,0.44073 -0.56292,0.58088 -0.56292,0.36312 z m -82.35156,-6.9545 c 0.1819,-0.0734 0.47956,-0.0734 0.66146,0 0.1819,0.0734 0.0331,0.13346 -0.33073,0.13346 -0.3638,0 -0.51263,-0.0601 -0.33073,-0.13346 z m 7.40834,0 c 0.1819,-0.0734 0.47955,-0.0734 0.66145,0 0.18191,0.0734 0.0331,0.13346 -0.33073,0.13346 -0.3638,0 -0.51263,-0.0601 -0.33072,-0.13346 z m -66.75108,-2.80133 -1.312982,-1.38906 1.389071,1.31297 c 1.290741,1.22003 1.5104,1.46515 1.312971,1.46515 -0.0419,0 -0.66693,-0.62508 -1.38906,-1.38906 z m 63.1792,-13.09118 c 0.5457,-0.0571 1.43867,-0.0571 1.98438,0 0.5457,0.0571 0.0992,0.10379 -0.99219,0.10379 -1.09141,0 -1.53789,-0.0467 -0.99219,-0.10379 z m -47.039622,-3.57757 -1.312968,-1.38906 1.38906,1.31297 c 1.29074,1.22003 1.5104,1.46515 1.312971,1.46515 -0.0419,0 -0.666933,-0.62508 -1.389063,-1.38906 z M 70.16228,117.23827 c -0.32911,-0.41964 -0.319751,-0.429 0.0999,-0.0999 0.44073,0.34565 0.58089,0.56292 0.36313,0.56292 -0.0549,0 -0.2633,-0.20836 -0.463021,-0.46302 z m -16.983252,-2.11626 c 2.79164,-0.0428 7.435072,-0.0429 10.31875,-1.3e-4 2.88367,0.0427 0.599602,0.0778 -5.075708,0.0778 -5.675321,8e-5 -8.034682,-0.0349 -5.243042,-0.0777 z M 0.1023287,90.559453 c 0.0127,-0.30822 0.0754,-0.37092 0.15985,-0.15985 0.0764,0.19099 0.067,0.4192 -0.0209,0.50712 -0.0879,0.0879 -0.15046001,-0.0683 -0.13897001,-0.34727 z m 57.2244903,-6.72483 c 0,-1.38244 0.0446,-1.94799 0.0991,-1.25677 0.0545,0.69123 0.0545,1.82232 0,2.51355 -0.0545,0.69122 -0.0991,0.12567 -0.0991,-1.25678 z M 0.1023287,75.478205 c 0.0127,-0.308221 0.0754,-0.370922 0.15985,-0.15985 0.0764,0.190989 0.067,0.4192 -0.0209,0.507119 -0.0879,0.0879 -0.15046001,-0.0684 -0.13897001,-0.347269 z M 69.931439,50.661815 c 0,-0.0549 0.20836,-0.2633 0.463021,-0.46302 0.419651,-0.32911 0.429009,-0.319749 0.0999,0.0999 -0.345639,0.440733 -0.56292,0.58089 -0.56292,0.363122 z m 2.91042,-2.910411 c 0,-0.0549 0.208359,-0.2633 0.463021,-0.463021 0.419639,-0.32911 0.429,-0.319749 0.0999,0.0999 -0.345649,0.440729 -0.562919,0.58089 -0.562919,0.36313 z m 82.780821,-9.09438 c -0.32911,-0.41964 -0.31975,-0.429001 0.0999,-0.0999 0.25466,0.199718 0.46302,0.40808 0.46302,0.463018 0,0.21776 -0.21728,0.0776 -0.56292,-0.36313 z m -98.655821,-0.43062 c 0,-0.0549 0.208359,-0.2633 0.463021,-0.463021 0.419639,-0.32911 0.429,-0.319749 0.0999,0.0999 -0.345649,0.440729 -0.562919,0.58089 -0.562919,0.36313 z m 3.704169,-3.704169 c 0,-0.0549 0.208351,-0.2633 0.463021,-0.463021 0.41964,-0.32911 0.429001,-0.319749 0.0999,0.0999 -0.345641,0.44073 -0.562911,0.58089 -0.562911,0.36313 z m 44.386922,-0.351822 c 0.32912,-0.0633 0.80537,-0.0609 1.05834,0.005 0.25296,0.0662 -0.0163,0.118001 -0.5984,0.115059 -0.58208,-0.003 -0.78905,-0.0571 -0.45994,-0.120399 z m 2.90734,5.29e-4 c 0.32742,-0.0631 0.8632,-0.0631 1.19062,0 0.32742,0.0631 0.0595,0.11466 -0.59531,0.11466 -0.65485,0 -0.92274,-0.0516 -0.59531,-0.11466 z M 104.79915,16.43509 c 0.76887,-0.0536 1.9595,-0.053 2.64584,0.0011 0.68634,0.0543 0.0573,0.0982 -1.39793,0.0975 -1.45521,-7.93e-4 -2.01677,-0.0451 -1.24791,-0.0987 z"
         id="path2110" />
      <path
         style="fill:#686351;stroke-width:0.264583"
         d="m 104.39705,189.74268 c 0.40218,-0.0608 0.99749,-0.0592 1.32292,0.004 0.32542,0.0628 -0.004,0.11256 -0.73125,0.11057 -0.7276,-0.002 -0.99385,-0.0534 -0.59167,-0.11418 z m 4.10049,0.003 c 0.32912,-0.0633 0.80537,-0.0609 1.05833,0.005 0.25297,0.0662 -0.0163,0.118 -0.5984,0.11507 -0.58208,-0.003 -0.78905,-0.0571 -0.45993,-0.12041 z M 72.54353,119.61979 c -0.32911,-0.41964 -0.319751,-0.429 0.0999,-0.0999 0.254662,0.19973 0.463021,0.40808 0.463021,0.46303 0,0.21776 -0.217271,0.0776 -0.562912,-0.36313 z m -1.5875,-1.5875 c -0.32911,-0.41964 -0.319751,-0.429 0.0999,-0.0999 0.44073,0.34565 0.58089,0.56292 0.36313,0.56292 -0.0549,0 -0.2633,-0.20836 -0.463021,-0.46302 z M -0.13156129,82.908853 c 0.005,-0.43656 0.06469999,-0.58312 0.13176999398,-0.32569 0.067099996,0.25743 0.062699996,0.61462 -0.010000004,0.79375 -0.0725,0.17913 -0.12736,-0.0315 -0.12197,-0.46806 z M 72.1804,48.380734 c 0.26339,-0.291039 0.538419,-0.529169 0.61118,-0.529169 0.0728,0 -0.0832,0.23813 -0.346602,0.529169 -0.26339,0.291042 -0.538419,0.529169 -0.611179,0.529169 -0.0728,0 0.0832,-0.238127 0.346601,-0.529169 z m 34.46197,-14.19815 c 0.1819,-0.0734 0.47956,-0.0734 0.66146,0 0.1819,0.0734 0.0331,0.133461 -0.33073,0.133461 -0.3638,0 -0.51263,-0.0601 -0.33073,-0.133461 z M 40.16582,22.980734 c 0.26339,-0.291039 0.538419,-0.529169 0.611179,-0.529169 0.0728,0 -0.0832,0.23813 -0.346601,0.529169 -0.263388,0.291039 -0.538419,0.529169 -0.61118,0.529169 -0.0728,0 0.0832,-0.23813 0.346602,-0.529169 z m 132.65479,0.0661 c -0.32911,-0.41964 -0.31976,-0.429001 0.0999,-0.0999 0.44073,0.345642 0.58089,0.56292 0.36313,0.56292 -0.0549,0 -0.2633,-0.208359 -0.46302,-0.463029 z M 45.325189,17.853715 c 0,-0.0549 0.20836,-0.2633 0.463021,-0.463021 0.419648,-0.32911 0.429009,-0.319749 0.0999,0.0999 -0.345641,0.440732 -0.56292,0.58089 -0.56292,0.36313 z m 121.145421,-1.15688 c -0.32911,-0.41964 -0.31976,-0.429001 0.0999,-0.0999 0.44073,0.345642 0.58089,0.56292 0.36313,0.56292 -0.0549,0 -0.2633,-0.208359 -0.46302,-0.463029 z m -57.69504,-0.24688 c 0.191,-0.0764 0.4192,-0.067 0.50712,0.0209 0.0879,0.0879 -0.0683,0.15045 -0.34726,0.138959 -0.30823,-0.0127 -0.37092,-0.0754 -0.15986,-0.159851 z m -81.971211,-4.15249 c 0,-0.0549 0.208359,-0.2633 0.463021,-0.463021 0.41965,-0.32911 0.428998,-0.319749 0.0999,0.0999 -0.345649,0.440721 -0.562919,0.580882 -0.562919,0.363122 z M 186.04976,11.669754 c -0.3291,-0.41964 -0.31974,-0.429001 0.0999,-0.0999 0.44073,0.345641 0.58089,0.562911 0.36311,0.562911 -0.0549,0 -0.2633,-0.208359 -0.46302,-0.46302 z m -4.09243,-4.3656173 -0.50402,-0.59532 0.59531,0.504028 c 0.32743,0.27722 0.59531,0.545111 0.59531,0.595321 0,0.21173 -0.21293,0.0554 -0.6866,-0.504029 z M 35.006439,4.0953867 c 0,-0.0549 0.20836,-0.2633 0.463021,-0.463021 0.419648,-0.32911 0.429009,-0.319749 0.0999,0.0999 -0.345641,0.440732 -0.56292,0.58089 -0.56292,0.36313 z M 177.84768,3.4676757 c -0.32911,-0.41965 -0.31975,-0.429001 0.0999,-0.0999 0.44073,0.345651 0.58088,0.562922 0.36312,0.562922 -0.0549,0 -0.2633,-0.208362 -0.46302,-0.463022 z m -78.332514,-9.5073 c 0.190989,-0.0764 0.419197,-0.067 0.507104,0.0209 0.0879,0.0879 -0.0684,0.15045 -0.347253,0.13897 -0.308229,-0.0127 -0.37092,-0.0754 -0.159851,-0.15985 z m 13.758324,0 c 0.19099,-0.0764 0.4192,-0.067 0.50712,0.0209 0.0879,0.0879 -0.0684,0.15045 -0.34727,0.13897 -0.30822,-0.0127 -0.37092,-0.0754 -0.15985,-0.15985 z m -7.95404,-0.27758 c 0.61847,-0.0557 1.6305,-0.0557 2.24896,0 0.61846,0.0557 0.11245,0.10128 -1.12448,0.10128 -1.23693,0 -1.74294,-0.0456 -1.12448,-0.10128 z M 97.663077,-23.237545 c 0.191,-0.07643 0.419201,-0.06703 0.507119,0.02088 0.0879,0.08792 -0.0684,0.150452 -0.34726,0.138964 -0.308229,-0.0127 -0.370919,-0.07539 -0.159859,-0.159851 z m 17.991663,0 c 0.19099,-0.07643 0.4192,-0.06703 0.50712,0.02088 0.0879,0.08792 -0.0684,0.150452 -0.34727,0.138964 -0.30822,-0.0127 -0.37092,-0.07539 -0.15985,-0.159851 z m -13.51029,-0.270568 c 0.32742,-0.06307 0.86321,-0.06307 1.19063,0 0.32742,0.06306 0.0595,0.114662 -0.59531,0.114662 -0.65485,0 -0.92274,-0.0516 -0.59532,-0.114662 z m 8.33802,-0.0031 c 0.40218,-0.06082 0.99749,-0.05919 1.32291,0.0036 0.32542,0.0628 -0.004,0.112559 -0.73124,0.110575 -0.7276,-0.0021 -0.99385,-0.05337 -0.59167,-0.114186 z"
         id="path2108" />
      <path
         style="fill:#585139;stroke-width:0.264583"
         d="m 101.74758,189.74303 c 0.40018,-0.0606 1.05502,-0.0606 1.45521,0 0.40018,0.0606 0.0728,0.11023 -0.72761,0.11023 -0.80036,0 -1.12778,-0.0496 -0.7276,-0.11023 z m 8.73489,-2.6e-4 c 0.40218,-0.0608 0.99749,-0.0592 1.32291,0.004 0.32542,0.0628 -0.004,0.11256 -0.73124,0.11057 -0.7276,-0.002 -0.99385,-0.0534 -0.59167,-0.11419 z M 97.663077,189.4873 c 0.191,-0.0764 0.419201,-0.067 0.507119,0.0209 0.0879,0.0879 -0.0684,0.15045 -0.34726,0.13895 -0.308229,-0.0127 -0.370919,-0.0754 -0.159859,-0.15984 z m 17.975123,0.006 c 0.1819,-0.0734 0.47956,-0.0734 0.66146,0 0.1819,0.0734 0.0331,0.13345 -0.33073,0.13345 -0.3638,0 -0.51263,-0.06 -0.33073,-0.13345 z m -15.08125,-16.66875 c 0.1819,-0.0734 0.47956,-0.0734 0.66146,0 0.1819,0.0734 0.0331,0.13345 -0.33073,0.13345 -0.3638,0 -0.51263,-0.0601 -0.33073,-0.13345 z m 11.37709,0 c 0.1819,-0.0734 0.47955,-0.0734 0.66145,0 0.18191,0.0734 0.0331,0.13345 -0.33073,0.13345 -0.3638,0 -0.51263,-0.0601 -0.33072,-0.13345 z m -14.535543,-0.2701 c 0.190989,-0.0764 0.4192,-0.067 0.507119,0.0209 0.0879,0.0879 -0.0684,0.15045 -0.347269,0.13896 -0.308221,-0.0127 -0.370922,-0.0754 -0.15985,-0.15985 z m 17.991663,0 c 0.191,-0.0764 0.4192,-0.067 0.50711,0.0209 0.0879,0.0879 -0.0684,0.15045 -0.34726,0.13896 -0.30823,-0.0127 -0.37092,-0.0754 -0.15985,-0.15985 z m 2.38125,-0.26458 c 0.191,-0.0764 0.4192,-0.067 0.50711,0.0209 0.0879,0.0879 -0.0684,0.15045 -0.34726,0.13896 -0.30823,-0.0127 -0.37092,-0.0754 -0.15985,-0.15985 z m 57.72877,-7.32757 c 0,-0.0549 0.20837,-0.2633 0.46302,-0.46302 0.41965,-0.32911 0.42901,-0.31975 0.0999,0.0999 -0.34565,0.44073 -0.56292,0.58088 -0.56292,0.36312 z m 2.11668,-1.85208 c 0,-0.0549 0.20836,-0.2633 0.46301,-0.46302 0.41964,-0.32911 0.429,-0.31975 0.0999,0.0999 -0.34565,0.44073 -0.56292,0.58089 -0.56292,0.36313 z M 34.972689,162.21745 c -0.329099,-0.41965 -0.319749,-0.42901 0.0999,-0.0999 0.440732,0.34564 0.58089,0.56292 0.363122,0.56292 -0.0549,0 -0.2633,-0.20836 -0.463022,-0.46302 z m 146.348321,-2.53019 c 0,-0.0455 0.38697,-0.43249 0.85991,-0.8599 l 0.85989,-0.7771 -0.77711,0.85989 c -0.72436,0.80155 -0.94269,0.98152 -0.94269,0.77711 z M 27.299778,154.54452 c -0.32911,-0.41965 -0.319749,-0.429 0.0999,-0.0999 0.254659,0.19972 0.463021,0.40808 0.463021,0.46302 0,0.21777 -0.217271,0.0776 -0.562912,-0.36312 z m 158.519152,0.36312 c 0,-0.0549 0.20837,-0.2633 0.46302,-0.46302 0.41965,-0.3291 0.42901,-0.31975 0.0999,0.0999 -0.34565,0.44073 -0.56292,0.58089 -0.56292,0.36312 z m -139.85742,-5.52249 -0.504032,-0.59532 0.595321,0.50403 c 0.55944,0.47366 0.715761,0.6866 0.504031,0.6866 -0.0502,0 -0.318101,-0.26789 -0.59532,-0.59531 z m 54.87656,-0.1146 c 0.191,-0.0764 0.4192,-0.067 0.50712,0.0209 0.0879,0.0879 -0.0683,0.15045 -0.34726,0.13897 -0.30823,-0.0127 -0.37092,-0.0754 -0.15986,-0.15985 z m 10.03763,0.005 c 0.1819,-0.0734 0.47956,-0.0734 0.66146,0 0.1819,0.0734 0.0331,0.13346 -0.33073,0.13346 -0.3638,0 -0.51263,-0.0601 -0.33073,-0.13346 z m -12.683453,-0.27009 c 0.190989,-0.0764 0.4192,-0.067 0.507119,0.0209 0.0879,0.0879 -0.0684,0.15045 -0.347269,0.13895 -0.308221,-0.0127 -0.370922,-0.0754 -0.15985,-0.15985 z m -58.316149,-5.70623 -0.504028,-0.59531 0.59531,0.50402 c 0.559448,0.47367 0.715758,0.6866 0.504028,0.6866 -0.0502,0 -0.318098,-0.26789 -0.59531,-0.59531 z m -1.99299,-2.24896 c -0.329109,-0.41964 -0.319749,-0.429 0.0999,-0.0999 0.254669,0.19972 0.463029,0.40808 0.463029,0.46302 0,0.21777 -0.217279,0.0776 -0.56292,-0.36312 z m 64.807052,-7.9198 c 0.19099,-0.0764 0.4192,-0.067 0.50711,0.0209 0.0879,0.0879 -0.0683,0.15046 -0.34726,0.13897 -0.30823,-0.0127 -0.37092,-0.0754 -0.15985,-0.15985 z m 8.20208,0 c 0.19099,-0.0764 0.4192,-0.067 0.50712,0.0209 0.0879,0.0879 -0.0683,0.15046 -0.34727,0.13897 -0.30822,-0.0127 -0.37092,-0.0754 -0.15985,-0.15985 z m -49.584892,-0.94374 -0.504028,-0.59531 0.59531,0.50402 c 0.55945,0.47367 0.715758,0.6866 0.504028,0.6866 -0.0502,0 -0.318098,-0.26789 -0.59531,-0.59531 z m -4.497919,-4.49792 -0.504029,-0.59531 0.59531,0.50403 c 0.559448,0.47366 0.715759,0.68659 0.504029,0.68659 -0.0502,0 -0.318101,-0.26789 -0.59531,-0.59531 z m 14.940351,-8.86354 c -0.32911,-0.41964 -0.319751,-0.429 0.0999,-0.0999 0.44073,0.34565 0.58089,0.56292 0.36313,0.56292 -0.0549,0 -0.2633,-0.20836 -0.463021,-0.46302 z M 0.3669187,94.527703 c 0.0127,-0.30822 0.0754,-0.37092 0.15985,-0.15985 0.0764,0.19099 0.067,0.4192 -0.0209,0.50712 -0.0879,0.0879 -0.15045,-0.0683 -0.13896002,-0.34727 z m -0.2437,-2.75608 c 0,-0.3638 0.06,-0.51263 0.13345,-0.33072 0.0734,0.1819 0.0734,0.47955 0,0.66145 -0.0734,0.18191 -0.13345,0.0331 -0.13345,-0.33073 z m 57.3936903,-3.59392 c 0.0127,-0.30822 0.0754,-0.37092 0.159861,-0.15985 0.0764,0.19099 0.067,0.4192 -0.0209,0.50712 -0.0879,0.0879 -0.15045,-0.0683 -0.138959,-0.34727 z m -57.6061303,-2.3592 c -8.001e-4,-1.30969 0.0439,-1.87883 0.0994,-1.26475 0.0555,0.61407 0.0562,1.68563 0.002,2.38125 -0.0547,0.69561 -0.10009,0.19319 -0.10089,-1.1165 z m -0.002,-5.68854 c 0,-1.23693 0.0456,-1.74294 0.10128,-1.12448 0.0557,0.61846 0.0557,1.63049 0,2.24896 -0.0557,0.61846 -0.10128,0.11245 -0.10128,-1.12448 z M 57.51639,79.446453 c 0.0127,-0.30822 0.0754,-0.37092 0.159848,-0.15985 0.0764,0.19099 0.067,0.4192 -0.0209,0.50712 -0.0879,0.0879 -0.15045,-0.0684 -0.138959,-0.34727 z m 0.264578,-2.38125 c 0.0127,-0.30822 0.0754,-0.37092 0.159851,-0.15985 0.0764,0.19099 0.067,0.4192 -0.0209,0.50712 -0.0879,0.0879 -0.15045,-0.0684 -0.138959,-0.34727 z M 0.1017987,74.419375 c 0.0127,-0.308229 0.0754,-0.37092 0.15985001,-0.159851 0.0764,0.190989 0.067,0.4192 -0.0209,0.507111 -0.0879,0.0879 -0.15044999,-0.0683 -0.13896999,-0.34726 z M 68.872699,51.984235 c 0,-0.0549 0.208362,-0.263301 0.46302,-0.463021 0.41964,-0.32911 0.429001,-0.319749 0.0999,0.0999 -0.345649,0.44073 -0.562919,0.58089 -0.562919,0.36313 z M 141.6331,48.776834 c -0.64268,-0.654839 -1.10898,-1.19062 -1.03621,-1.19062 0.0728,0 0.65812,0.535781 1.3008,1.19062 0.64268,0.654851 1.10898,1.19063 1.03623,1.19063 -0.0728,0 -0.65813,-0.535779 -1.30082,-1.19063 z m 11.5011,-12.89843 -1.57922,-1.653651 1.65365,1.579221 c 0.9095,0.868569 1.65364,1.61271 1.65364,1.653641 0,0.195508 -0.26111,-0.0431 -1.72807,-1.579211 z m -50.70904,-1.43751 c 0.191,-0.0764 0.4192,-0.067 0.50712,0.0209 0.0879,0.0879 -0.0684,0.15045 -0.34726,0.13897 -0.30823,-0.0127 -0.37092,-0.0754 -0.15986,-0.159848 z m 8.99584,0 c 0.19099,-0.0764 0.4192,-0.067 0.50711,0.0209 0.0879,0.0879 -0.0684,0.15045 -0.34726,0.13897 -0.30823,-0.0127 -0.37092,-0.0754 -0.15985,-0.159848 z m -49.692051,-0.97749 c 0,-0.0549 0.208359,-0.2633 0.46302,-0.463021 0.41964,-0.32911 0.429001,-0.319749 0.0999,0.0999 -0.345649,0.44073 -0.562919,0.580891 -0.562919,0.36313 z m -20.902081,-11.1125 c 0,-0.0549 0.208362,-0.2633 0.463021,-0.463021 0.419639,-0.32911 0.429,-0.319749 0.0999,0.0999 -0.345641,0.44073 -0.562912,0.580891 -0.562912,0.36313 z m 3.83645,-3.868859 c 0.26339,-0.291042 0.53843,-0.529162 0.61119,-0.529162 0.0728,0 -0.0832,0.23812 -0.346598,0.529162 -0.263391,0.291039 -0.538422,0.529169 -0.61118,0.529169 -0.0728,0 0.0832,-0.23813 0.346588,-0.529169 z m 122.600632,-0.99219 c -0.32911,-0.41964 -0.31976,-0.429001 0.0999,-0.0999 0.44073,0.345641 0.58089,0.56292 0.36313,0.56292 -0.0549,0 -0.2633,-0.20836 -0.46302,-0.463029 z m -68.278363,-0.77605 c 0.190989,-0.0764 0.4192,-0.067 0.507118,0.0209 0.0879,0.0879 -0.0683,0.15045 -0.347268,0.138959 -0.308221,-0.0127 -0.370919,-0.0754 -0.15985,-0.15985 z m 14.022913,0 c 0.19099,-0.0764 0.4192,-0.067 0.50711,0.0209 0.0879,0.0879 -0.0684,0.15045 -0.34726,0.138959 -0.30823,-0.0127 -0.37092,-0.0754 -0.15985,-0.15985 z m -10.99171,-0.267192 c 0.25743,-0.0671 0.61462,-0.0627 0.79375,0.01 0.17913,0.0725 -0.0315,0.12736 -0.46806,0.121971 -0.43656,-0.005 -0.58313,-0.0647 -0.32569,-0.131771 z m 7.67291,0 c 0.25743,-0.0671 0.61462,-0.0627 0.79375,0.01 0.17913,0.0725 -0.0315,0.12736 -0.46805,0.121971 -0.43657,-0.005 -0.58313,-0.0647 -0.3257,-0.131771 z M 29.978949,8.8247557 c 0.493649,-0.509321 0.95708,-0.926039 1.02984,-0.926039 0.0728,0 -0.2716,0.416718 -0.76526,0.926039 -0.493651,0.509317 -0.95708,0.926039 -1.02984,0.926039 -0.0728,0 0.2716,-0.416722 0.76526,-0.926039 z m 153.309381,-0.19844 -0.7771,-0.859891 0.8599,0.7771 c 0.47295,0.42741 0.85989,0.814358 0.85989,0.859898 0,0.204401 -0.21831,0.02439 -0.94269,-0.777107 z M 31.566449,7.2867567 c 0,-0.0455 0.38695,-0.432491 0.859901,-0.859891 l 0.859888,-0.77711 -0.7771,0.859901 c -0.724379,0.801539 -0.942689,0.981509 -0.942689,0.7771 z m 149.204961,-1.17398 -0.64143,-0.727602 0.7276,0.641432 c 0.40019,0.35279 0.72762,0.680209 0.72762,0.727599 0,0.20751 -0.21427,0.0386 -0.81379,-0.641429 z M 101.10266,-23.502358 c 0.19099,-0.07643 0.4192,-0.06703 0.50711,0.02087 0.0879,0.08792 -0.0684,0.150453 -0.34726,0.138965 -0.30823,-0.0127 -0.37092,-0.07539 -0.15985,-0.159851 z"
         id="path2106" />
    </g>
  </g>
</svg>
