<?xml version="1.0" encoding="UTF-8"?>
<svg id="Layer_1" xmlns="http://www.w3.org/2000/svg" viewBox="0 0 93.91 94">
  <defs>
    <style>
      .cls-1 {
        fill: #fff;
      }
    </style>
  </defs>
  <path class="cls-1" d="M67.57,38.34l-1.34-2.64,4.29-5.73-5.51-5.53-5.75,4.3-4.11-2.1-3.27-.87-1.02-7.19h-7.81l-1.02,7.16-.99.16-4.47,1.7-1.84,1.2-5.81-4.37-5.53,5.53,4.37,5.83-1.2,1.82-1.72,4.47-.15.99-7.16,1.02v7.81l7.19,1.03.87,3.27,2.1,4.1-4.3,5.75,5.53,5.51,5.73-4.29,2.68,1.36,6.19-13.26-1.02-.52-1.32-1.08-1.08-1.33-.78-1.52-.45-1.65-.08-1.7.26-1.69.61-1.59.93-1.44,1.21-1.2,1.43-.94,1.61-.61,1.69-.26,1.7.08,1.65.45,1.52.78,1.33,1.08,1.08,1.32.78,1.52.44,1.65.1,1.7-.27,1.7-.61,1.59-.93,1.43-1.21,1.21-1.43.93-.27.1,6.19,13.3.75-.29,1.84-1.2,5.83,4.37,5.51-5.51-4.37-5.83.29-.44c.6-.93,1.11-1.91,1.5-2.95l.76-1.97c.24-.62.41-1.27.51-1.93h0s7.16-1.02,7.16-1.02v-7.81l-7.17-1.02-.45-1.68c-.29-1.06-.68-2.08-1.18-3.06Z"/>
  <path class="cls-1" d="M93.91,47.08c-.1,25.94-21.11,46.93-46.96,46.92C21.03,93.98-.06,72.84,0,46.94.06,21,21.3-.16,47.09,0c25.93.17,46.92,21.27,46.82,47.08ZM46.9,7.39c-21.81.07-39.58,17.92-39.52,39.68.06,21.84,17.88,39.61,39.63,39.53,21.87-.09,39.59-17.86,39.52-39.64-.07-21.84-17.9-39.63-39.63-39.56Z"/>
</svg>