<?xml version="1.0" encoding="UTF-8" standalone="no"?>
<svg
   xmlns:dc="http://purl.org/dc/elements/1.1/"
   xmlns:cc="http://creativecommons.org/ns#"
   xmlns:rdf="http://www.w3.org/1999/02/22-rdf-syntax-ns#"
   xmlns:svg="http://www.w3.org/2000/svg"
   xmlns="http://www.w3.org/2000/svg"
   xmlns:sodipodi="http://sodipodi.sourceforge.net/DTD/sodipodi-0.dtd"
   xmlns:inkscape="http://www.inkscape.org/namespaces/inkscape"
   version="1.1"
   viewBox="0 0 512 512"
   id="svg11"
   sodipodi:docname="Gear icon - black.svg"
   width="512"
   height="512"
   inkscape:version="1.0.1 (3bc2e813f5, 2020-09-07)">
  <metadata
     id="metadata17">
    <rdf:RDF>
      <cc:Work
         rdf:about="">
        <dc:format>image/svg+xml</dc:format>
        <dc:type
           rdf:resource="http://purl.org/dc/dcmitype/StillImage" />
        <dc:title></dc:title>
      </cc:Work>
    </rdf:RDF>
  </metadata>
  <defs
     id="defs15" />
  <sodipodi:namedview
     pagecolor="#ffffff"
     bordercolor="#666666"
     borderopacity="1"
     objecttolerance="10"
     gridtolerance="10"
     guidetolerance="10"
     inkscape:pageopacity="0"
     inkscape:pageshadow="2"
     inkscape:window-width="1920"
     inkscape:window-height="1017"
     id="namedview13"
     showgrid="false"
     inkscape:zoom="1"
     inkscape:cx="194.2141"
     inkscape:cy="229.3789"
     inkscape:window-x="-8"
     inkscape:window-y="-8"
     inkscape:window-maximized="1"
     inkscape:current-layer="svg11" />
  <!-- Generator: Adobe Illustrator 28.7.2, SVG Export Plug-In . SVG Version: 1.2.0 Build 154)  -->
  <g
     id="g9"
     transform="matrix(5.452568,0,0,5.4467272,-11.448462,-10.885809)">
    <g
       id="Layer_1">
      <g
         id="g6">
        <path
           d="M 69.6,40.3 68.3,37.7 72.6,32 67.1,26.5 61.4,30.8 57.3,28.7 54,27.8 53,20.6 h -7.8 l -1,7.2 -1,0.2 -4.5,1.7 -1.8,1.2 -5.8,-4.4 -5.5,5.5 4.4,5.8 -1.2,1.8 -1.7,4.5 v 1 c -0.1,0 -7.3,1 -7.3,1 v 7.8 l 7.2,1 0.9,3.3 2.1,4.1 -4.3,5.7 5.5,5.5 5.7,-4.3 2.7,1.4 6.2,-13.3 -1,-0.5 -1.3,-1.1 -1.1,-1.3 -0.8,-1.5 -0.4,-1.6 v -1.7 c 0,0 0.2,-1.7 0.2,-1.7 l 0.6,-1.6 0.9,-1.4 1.2,-1.2 1.4,-0.9 1.6,-0.6 1.7,-0.3 h 1.7 c 0,0 1.6,0.5 1.6,0.5 l 1.5,0.8 1.3,1.1 1.1,1.3 0.8,1.5 0.4,1.6 v 1.7 c 0,0 -0.2,1.7 -0.2,1.7 l -0.6,1.6 -0.9,1.4 -1.2,1.2 -1.4,0.9 h -0.3 c 0,0 6.2,13.4 6.2,13.4 l 0.7,-0.3 1.8,-1.2 5.8,4.4 5.5,-5.5 -4.4,-5.8 0.3,-0.4 c 0.6,-0.9 1.1,-1.9 1.5,-2.9 l 0.8,-2 C 71,56.3 71.2,55.6 71.3,55 v 0 c 0,0 7.2,-1 7.2,-1 v -7.8 l -7.2,-1 -0.5,-1.7 c -0.3,-1.1 -0.7,-2.1 -1.2,-3.1 z"
           id="path2" />
        <path
           d="M 96,49.1 C 96,75 74.9,96 49,96 23.1,96 2,74.8 2.1,48.9 2.1,23 23.3,1.8 49.1,2 75,2.2 96.1,23.3 96,49.1 Z M 48.9,9.4 C 27.1,9.4 9.3,27.3 9.4,49.1 9.4,70.9 27.3,88.7 49,88.6 70.9,88.6 88.6,70.7 88.5,49 88.5,27.2 70.6,9.4 48.9,9.4 Z"
           id="path4"
           sodipodi:nodetypes="csccccscccs" />
      </g>
    </g>
  </g>
</svg>
