<?xml version="1.0" encoding="UTF-8" standalone="no"?>
<svg
   xmlns:dc="http://purl.org/dc/elements/1.1/"
   xmlns:cc="http://creativecommons.org/ns#"
   xmlns:rdf="http://www.w3.org/1999/02/22-rdf-syntax-ns#"
   xmlns:svg="http://www.w3.org/2000/svg"
   xmlns="http://www.w3.org/2000/svg"
   xmlns:sodipodi="http://sodipodi.sourceforge.net/DTD/sodipodi-0.dtd"
   xmlns:inkscape="http://www.inkscape.org/namespaces/inkscape"
   width="400"
   height="92"
   viewBox="0 0 105.83333 24.341667"
   version="1.1"
   id="svg127"
   inkscape:version="1.0.1 (3bc2e813f5, 2020-09-07)"
   sodipodi:docname="OpenBuildsCONTROL.svg">
  <defs
     id="defs121" />
  <sodipodi:namedview
     id="base"
     pagecolor="#ffffff"
     bordercolor="#666666"
     borderopacity="1.0"
     inkscape:pageopacity="0.0"
     inkscape:pageshadow="2"
     inkscape:zoom="1.979899"
     inkscape:cx="307.51417"
     inkscape:cy="144.37704"
     inkscape:document-units="mm"
     inkscape:current-layer="layer1"
     inkscape:document-rotation="0"
     showgrid="false"
     units="px"
     inkscape:window-width="1920"
     inkscape:window-height="1057"
     inkscape:window-x="1912"
     inkscape:window-y="760"
     inkscape:window-maximized="1" />
  <metadata
     id="metadata124">
    <rdf:RDF>
      <cc:Work
         rdf:about="">
        <dc:format>image/svg+xml</dc:format>
        <dc:type
           rdf:resource="http://purl.org/dc/dcmitype/StillImage" />
        <dc:title />
      </cc:Work>
    </rdf:RDF>
  </metadata>
  <g
     inkscape:label="Layer 1"
     inkscape:groupmode="layer"
     id="layer1">
    <path
       class="cls-1"
       d="M 21.000298,7.5914652 C 18.491922,2.8839647 13.337722,1.3033479 9.2487244,2.5059923 4.4725002,3.9148046 1.8266774,8.0037999 1.9297614,12.367695 c 0.1030771,4.776228 3.1956036,8.349797 7.3876861,9.518091 4.7418625,1.305721 9.9647855,-0.996477 12.0264645,-5.841431 0.549781,0.309259 1.065202,0.618504 1.614983,0.962114 C 21.481356,20.820583 17.15183,24.359802 11.68838,24.187997 5.606424,23.981829 1.0707287,19.549212 0.17733367,14.257571 -0.92222926,7.6945557 3.2354924,2.2310974 8.6645814,0.68484392 14.299839,-0.93014935 19.866374,1.715684 22.409114,6.2513793 21.928054,6.6980658 21.481356,7.1447652 21.000298,7.5914652 Z"
       id="path34"
       style="fill:#ffffff;stroke-width:0.343613" />
    <g
       aria-label="OPENBUILDS"
       id="text38"
       style="font-weight:700;font-size:13.2979px;font-family:SpaceBT-Bold, 'Space Bd BT';fill:#ffffff;stroke-width:0.343613"
       class="cls-2">
      <path
         d="m 23.942724,8.7082251 q -0.545422,0 -0.824626,0.279204 -0.279204,0.2792039 -0.279204,0.8246256 V 13.32483 q 0,0.545422 0.279204,0.824626 0.279204,0.279204 0.824626,0.279204 h 2.623218 q 0.545422,0 0.824626,-0.279204 0.279204,-0.279204 0.279204,-0.824626 V 9.8120547 q 0,-0.5454217 -0.279204,-0.8246256 -0.279204,-0.279204 -0.824626,-0.279204 z M 23.754423,6.7667836 h 2.993326 q 1.357062,0 2.123249,0.7661876 0.766188,0.7661876 0.766188,2.1167556 v 3.8179522 q 0,1.357061 -0.766188,2.129741 -0.766187,0.772681 -2.123249,0.772681 h -2.993326 q -1.350568,0 -2.116755,-0.772681 Q 20.87148,14.82474 20.87148,13.467679 V 9.6497268 q 0,-1.350568 0.766188,-2.1167556 0.766187,-0.7661876 2.116755,-0.7661876 z"
         style="fill:#ffffff;stroke-width:0.343613"
         id="path13" />
      <path
         d="m 32.773361,8.8835392 v 1.9154688 h 2.889436 q 0.473997,0 0.720736,-0.1883 0.246738,-0.1883 0.246738,-0.545422 V 9.6107681 q 0,-0.3571213 -0.246738,-0.5389285 Q 36.136794,8.8835392 35.662797,8.8835392 Z M 30.805947,6.955084 h 5.123068 q 1.337581,0 1.999879,0.5519148 0.668791,0.5454216 0.668791,1.6427581 v 1.3830341 q 0,1.097336 -0.668791,1.655744 -0.668791,0.551915 -1.999879,0.551915 h -3.155654 v 3.441351 h -1.967414 z"
         style="fill:#ffffff;stroke-width:0.343613"
         id="path15" />
      <path
         d="m 42.344214,6.955084 h 4.56466 v 1.9284552 h -4.415319 q -0.603859,0 -0.837612,0.2337522 -0.227259,0.227259 -0.227259,0.844105 v 0.5843806 h 5.48019 v 1.941441 h -5.48019 v 0.68827 q 0,0.610353 0.227259,0.837612 0.227259,0.227259 0.837612,0.227259 h 4.415319 v 1.941442 h -4.56466 q -1.558348,0 -2.220646,-0.662298 Q 39.46127,14.850712 39.46127,13.285871 V 9.8380272 q 0,-1.5648408 0.655805,-2.2206455 0.662298,-0.6622977 2.227139,-0.6622977 z"
         style="fill:#ffffff;stroke-width:0.343613"
         id="path17" />
      <path
         d="m 52.999416,8.8965254 1.383033,4.8893156 q 0.110383,0.389587 0.227259,0.51945 0.123369,0.123369 0.344135,0.123369 0.240246,0 0.363615,-0.149342 0.129862,-0.149342 0.129862,-0.435039 V 6.955084 h 1.967414 v 7.109961 q 0,1.084351 -0.636325,1.694703 -0.636326,0.610353 -1.772621,0.610353 -1.032405,0 -1.610292,-0.48049 -0.571395,-0.480491 -0.902543,-1.649252 L 51.109919,9.3445504 Q 50.999536,8.9614566 50.876167,8.8380874 50.759291,8.7082251 50.538525,8.7082251 q -0.246738,0 -0.370108,0.1428485 -0.123369,0.1428486 -0.123369,0.4285456 V 16.181801 H 48.077634 V 9.0523602 q 0,-1.0778571 0.636325,-1.6817169 0.636326,-0.6038597 1.772621,-0.6038597 1.032405,0 1.603799,0.4804905 0.577888,0.4804906 0.909037,1.6492513 z"
         style="fill:#ffffff;stroke-width:0.343613"
         id="path19" />
      <path
         d="m 60.602852,8.8251012 v 5.4801898 h 3.08423 q 0.629832,0 0.889557,-0.22726 0.259724,-0.227259 0.259724,-0.766187 0,-0.538929 -0.259724,-0.753202 -0.253232,-0.220765 -0.889557,-0.220765 h -2.149221 v -1.727169 h 2.08429 q 0.616846,0 0.857091,-0.194794 0.246738,-0.201286 0.246738,-0.6947629 0,-0.4934768 -0.246738,-0.6947634 Q 64.238997,8.8251012 63.622151,8.8251012 Z M 58.635438,6.955084 h 5.239944 q 1.376541,0 2.08429,0.4999698 0.70775,0.4999699 0.70775,1.4674441 v 1.0064329 q 0,0.6558042 -0.493477,1.0583782 -0.486983,0.39608 -1.311609,0.409066 0.915529,0.04545 1.409006,0.493477 0.493477,0.441531 0.493477,1.220705 v 1.090844 q 0,0.967474 -0.714243,1.473937 -0.714243,0.506463 -2.08429,0.506463 h -5.330848 z"
         style="fill:#ffffff;stroke-width:0.343613"
         id="path21" />
      <path
         d="m 67.93358,6.955084 h 1.967414 v 6.369746 q 0,0.545422 0.279204,0.824626 0.285697,0.279204 0.837612,0.279204 h 2.207659 q 0.551915,0 0.831119,-0.279204 0.285697,-0.279204 0.285697,-0.824626 V 6.955084 h 1.967414 v 6.512595 q 0,1.357061 -0.772681,2.129741 -0.766188,0.772681 -2.123249,0.772681 h -2.577767 q -1.357061,0 -2.129742,-0.772681 -0.77268,-0.77268 -0.77268,-2.129741 z"
         style="fill:#ffffff;stroke-width:0.343613"
         id="path23" />
      <path
         d="m 77.536897,6.955084 h 1.967414 v 9.226717 h -1.967414 z"
         style="fill:#ffffff;stroke-width:0.343613"
         id="path25" />
      <path
         d="m 80.744497,6.955084 h 1.967414 v 6.220404 q 0,0.60386 0.233752,0.837612 0.233752,0.227259 0.844105,0.227259 h 2.993326 v 1.941442 h -3.136175 q -1.564841,0 -2.233631,-0.662298 -0.668791,-0.668791 -0.668791,-2.233632 z"
         style="fill:#ffffff;stroke-width:0.343613"
         id="path27" />
      <path
         d="m 89.477738,8.8835392 v 5.3568198 h 3.233571 q 0.551915,0 0.831119,-0.279204 0.285697,-0.279204 0.285697,-0.824625 v -3.136175 q 0,-0.5519148 -0.285697,-0.8311187 Q 93.256731,8.8835392 92.711309,8.8835392 Z M 87.510324,6.955084 h 5.389286 q 1.357061,0 2.123248,0.7661876 0.772681,0.7596945 0.772681,2.1167556 v 3.4478438 q 0,1.350568 -0.772681,2.123249 -0.766187,0.772681 -2.123248,0.772681 h -5.389286 z"
         style="fill:#ffffff;stroke-width:0.343613"
         id="path29" />
      <path
         d="m 99.717377,6.955084 h 4.785423 v 1.9284552 h -4.824382 q -0.486984,0 -0.740215,0.2142728 -0.246739,0.2077797 -0.246739,0.6233391 0,0.4090659 0.246739,0.6168459 0.253231,0.20778 0.740215,0.20778 h 2.071302 q 1.49342,0 2.33103,0.746708 0.83761,0.746708 0.83761,2.071304 0,1.324595 -0.83761,2.071304 -0.83761,0.746708 -2.33103,0.746708 h -4.837369 v -1.941442 h 4.882819 q 0.5649,0 0.8506,-0.220766 0.29219,-0.220765 0.29219,-0.655804 0,-0.441532 -0.29219,-0.655805 -0.2857,-0.220766 -0.8506,-0.220766 h -2.077793 q -1.389527,0 -2.194673,-0.740215 -0.798654,-0.746708 -0.798654,-2.0258519 0,-1.2856368 0.798654,-2.025852 Q 98.32785,6.955084 99.717377,6.955084 Z"
         style="fill:#ffffff;stroke-width:0.343613"
         id="path31" />
    </g>
    <g
       aria-label="CONTROL"
       transform="scale(1.0488088,0.95346263)"
       id="text42"
       style="font-size:4.91366px;font-family:SegoeUISymbol, 'Segoe UI Symbol';letter-spacing:0.3em;fill:#ffffff;stroke-width:0.360385"
       class="cls-3">
      <path
         d="m 71.467575,22.55778 q -0.38148,0.201536 -0.950102,0.201536 -0.73417,0 -1.175632,-0.472651 -0.441461,-0.472652 -0.441461,-1.240412 0,-0.825341 0.496644,-1.333982 0.496644,-0.50864 1.259605,-0.50864 0.489447,0 0.810946,0.141555 v 0.429466 q -0.369484,-0.206335 -0.815744,-0.206335 -0.592614,0 -0.962099,0.395875 -0.367085,0.395876 -0.367085,1.058069 0,0.628603 0.343093,1.002886 0.345492,0.371883 0.904516,0.371883 0.518238,0 0.897319,-0.230328 z"
         style="fill:#ffffff;stroke-width:0.360385"
         id="path35" />
      <path
         d="m 75.029019,22.759316 q -0.731771,0 -1.173232,-0.482248 -0.439063,-0.482249 -0.439063,-1.254807 0,-0.83014 0.44866,-1.324385 0.448659,-0.494245 1.221217,-0.494245 0.712577,0 1.146841,0.479849 0.436663,0.47985 0.436663,1.254807 0,0.842136 -0.44626,1.331583 -0.446261,0.489446 -1.194826,0.489446 z m 0.02879,-3.190999 q -0.54223,0 -0.880524,0.391077 -0.338294,0.391077 -0.338294,1.026878 0,0.635801 0.328697,1.024479 0.331096,0.386279 0.86133,0.386279 0.566223,0 0.89252,-0.369484 0.326298,-0.369484 0.326298,-1.034076 0,-0.681387 -0.316701,-1.05327 -0.3167,-0.371883 -0.873326,-0.371883 z"
         style="fill:#ffffff;stroke-width:0.360385"
         id="path37" />
      <path
         d="m 81.594321,22.701735 h -0.494245 l -1.770645,-2.742341 q -0.06718,-0.103168 -0.110365,-0.215932 h -0.0144 q 0.01919,0.110365 0.01919,0.472652 v 2.485621 h -0.403073 v -3.440522 h 0.523036 l 1.72266,2.699154 q 0.107966,0.167947 0.139156,0.230328 h 0.0096 q -0.02399,-0.148754 -0.02399,-0.506242 v -2.42324 h 0.403073 z"
         style="fill:#ffffff;stroke-width:0.360385"
         id="path39" />
      <path
         d="M 86.005099,19.625899 H 85.01181 v 3.075836 h -0.403074 v -3.075836 h -0.990889 v -0.364686 h 2.387252 z"
         style="fill:#ffffff;stroke-width:0.360385"
         id="path41" />
      <path
         d="m 90.485456,22.701735 h -0.47985 l -0.575819,-0.964498 q -0.07918,-0.134358 -0.153552,-0.227929 -0.07438,-0.09597 -0.153552,-0.155951 -0.07678,-0.05998 -0.167947,-0.08637 -0.08877,-0.02879 -0.201537,-0.02879 h -0.331096 v 1.463542 h -0.403074 v -3.440522 h 1.026878 q 0.225529,0 0.41507,0.05758 0.19194,0.05518 0.331096,0.170346 0.141556,0.115164 0.220731,0.28791 0.07917,0.170347 0.07917,0.400675 0,0.179943 -0.05518,0.331096 -0.05278,0.148753 -0.153552,0.266316 -0.09837,0.117563 -0.239925,0.201537 -0.139157,0.08158 -0.314302,0.12716 v 0.0096 q 0.08637,0.03839 0.148754,0.08877 0.06478,0.04799 0.122361,0.115164 0.05758,0.06718 0.112765,0.153552 0.05758,0.08397 0.12716,0.196739 z m -2.063353,-3.075836 v 1.247609 h 0.547028 q 0.151153,0 0.278313,-0.04559 0.129559,-0.04559 0.22313,-0.12956 0.09357,-0.08637 0.146354,-0.208734 0.05278,-0.124761 0.05278,-0.278313 0,-0.275913 -0.179944,-0.429465 -0.177544,-0.155951 -0.515838,-0.155951 z"
         style="fill:#ffffff;stroke-width:0.360385"
         id="path43" />
      <path
         d="m 93.81897,22.759316 q -0.731771,0 -1.173232,-0.482248 -0.439063,-0.482249 -0.439063,-1.254807 0,-0.83014 0.44866,-1.324385 0.448659,-0.494245 1.221217,-0.494245 0.712577,0 1.14684,0.479849 0.436664,0.47985 0.436664,1.254807 0,0.842136 -0.446261,1.331583 -0.44626,0.489446 -1.194825,0.489446 z m 0.02879,-3.190999 q -0.54223,0 -0.880524,0.391077 -0.338294,0.391077 -0.338294,1.026878 0,0.635801 0.328697,1.024479 0.331096,0.386279 0.86133,0.386279 0.566222,0 0.89252,-0.369484 0.326298,-0.369484 0.326298,-1.034076 0,-0.681387 -0.316701,-1.05327 -0.316701,-0.371883 -0.873326,-0.371883 z"
         style="fill:#ffffff;stroke-width:0.360385"
         id="path45" />
      <path
         d="m 99.395782,22.701735 h -1.78504 v -3.440522 h 0.403074 v 3.075836 h 1.381966 z"
         style="fill:#ffffff;stroke-width:0.360385"
         id="path47" />
    </g>
    <path
       id="polygon44"
       style="fill:#ffffff"
       transform="matrix(0.34361329,0,0,0.34361329,-14.254425,-138.34104)"
       d="m 70.6,437.3 0.5,-1.2 0.6,-1 0.9,-0.9 1,-0.6 1.2,-0.5 1.2,-0.2 1.2,0.1 1.2,0.3 1.1,0.6 0.9,0.7 0.8,1 0.6,1.1 0.3,1.2 v 1.2 l -0.2,1.2 -0.4,1.2 -0.7,1 -0.8,0.9 -1.1,0.6 -0.1,0.1 4.4,9.6 0.5,-0.2 1.3,-0.9 4.2,3.1 4,-3.9 -3.2,-4.2 0.9,-1.3 1.2,-3.2 0.1,-0.8 5.1,-0.7 V 436 l -5.1,-0.8 -0.6,-2.3 -1.5,-3 3.1,-4.1 -4,-4 -4.1,3.1 -2.9,-1.5 -2.4,-0.6 -0.7,-5.2 h -5.6 l -0.7,5.2 -0.8,0.1 -3.1,1.2 -1.4,0.9 -4.1,-3.2 -4,4 3.1,4.2 -0.8,1.3 -1.2,3.2 -0.1,0.7 -5.2,0.8 v 5.6 l 5.2,0.7 0.6,2.4 1.5,2.9 -3.1,4.2 4,3.9 4.1,-3 1.9,0.9 4.4,-9.5 -0.7,-0.4 -0.9,-0.7 -0.8,-1 -0.6,-1.1 -0.3,-1.2 v -1.2 z"
       class="cls-1" />
  </g>
</svg>
