<?xml version="1.0" encoding="UTF-8" standalone="no"?>
<svg
   xmlns:dc="http://purl.org/dc/elements/1.1/"
   xmlns:cc="http://creativecommons.org/ns#"
   xmlns:rdf="http://www.w3.org/1999/02/22-rdf-syntax-ns#"
   xmlns:svg="http://www.w3.org/2000/svg"
   xmlns="http://www.w3.org/2000/svg"
   xmlns:sodipodi="http://sodipodi.sourceforge.net/DTD/sodipodi-0.dtd"
   xmlns:inkscape="http://www.inkscape.org/namespaces/inkscape"
   width="512"
   height="512"
   viewBox="0 0 135.46666 135.46667"
   version="1.1"
   id="svg920"
   inkscape:version="1.0.1 (3bc2e813f5, 2020-09-07)"
   sodipodi:docname="fabber.svg">
  <defs
     id="defs914" />
  <sodipodi:namedview
     id="base"
     pagecolor="#ffffff"
     bordercolor="#666666"
     borderopacity="1.0"
     inkscape:pageopacity="0.0"
     inkscape:pageshadow="2"
     inkscape:zoom="0.98994949"
     inkscape:cx="350.6308"
     inkscape:cy="341.45022"
     inkscape:document-units="mm"
     inkscape:current-layer="g861"
     inkscape:document-rotation="0"
     showgrid="false"
     units="px"
     inkscape:window-width="1920"
     inkscape:window-height="1017"
     inkscape:window-x="-8"
     inkscape:window-y="-8"
     inkscape:window-maximized="1" />
  <metadata
     id="metadata917">
    <rdf:RDF>
      <cc:Work
         rdf:about="">
        <dc:format>image/svg+xml</dc:format>
        <dc:type
           rdf:resource="http://purl.org/dc/dcmitype/StillImage" />
        <dc:title />
      </cc:Work>
    </rdf:RDF>
  </metadata>
  <g
     inkscape:label="Layer 1"
     inkscape:groupmode="layer"
     id="layer1">
    <g
       id="g861"
       transform="matrix(0.43822643,0,0,0.43822643,154.81448,5.8270327)">
      <g
         id="g862"
         transform="matrix(2.231835,0,0,2.231835,240.98713,-21.260085)">
        <path
           style="fill:#c7c9cb;stroke-width:0.169333"
           d="m -193.22979,28.828993 c 1e-5,-13.038667 0.0201,-18.347662 0.0447,-11.797767 0.0246,6.549896 0.0245,17.217897 0,23.706667 -0.0246,6.488772 -0.0447,1.129767 -0.0447,-11.9089 z"
           id="path875"
           sodipodi:nodetypes="sscs" />
        <path
           style="fill:#95989d;stroke-width:0.169333"
           d="m -156.65387,88.942328 c 0,-12.573001 0.0201,-17.741493 0.0447,-11.485537 0.0246,6.255956 0.0246,16.542956 0,22.859999 -0.0246,6.31705 -0.0447,1.19854 -0.0447,-11.374462 z"
           id="path873"
           sodipodi:nodetypes="ssss" />
        <path
           style="fill:#585d64;stroke-width:0.169333"
           d="m -198.14079,120.69233 c 0,-11.3157 0.0202,-15.94485 0.045,-10.287 0.0247,5.65785 0.0247,14.91615 0,20.574 -0.0247,5.65785 -0.045,1.0287 -0.045,-10.287 z"
           id="path869"
           sodipodi:nodetypes="scss" />
        <path
           style="fill:#c81329;stroke-width:0.169333"
           d="m -216.46846,81.78391 c -9.98855,-4.89637 -18.161,-8.94874 -18.161,-9.005264 0,-0.05652 9.12167,-4.727384 20.27038,-10.379687 l 20.27037,-10.276913 1.61596,0.641596 c 0.88878,0.352877 9.2891,3.532039 18.66739,7.064807 9.37827,3.532766 16.99827,6.476018 16.93333,6.540561 -0.16237,0.161351 -41.05508,24.212393 -41.26609,24.270647 -0.0931,0.02571 -8.34179,-3.959376 -18.33034,-8.855747 z"
           id="path867"
           sodipodi:nodetypes="ssscsssss" />
        <path
           style="fill:#1f262f;stroke-width:0.169333"
           d="m -198.05345,120.59945 c 0,-19.38062 -0.0153,-20.43179 -0.29634,-20.35537 -0.16298,0.0443 -8.41163,4.85598 -18.33033,10.69257 l -18.034,10.61198 -0.0429,-24.247128 c -0.0236,-13.335922 -0.0145,-24.275545 0.0202,-24.310275 0.0347,-0.03473 7.63594,3.643612 16.89158,8.174091 9.25564,4.53048 17.4817,8.539601 18.28015,8.909159 l 1.45172,0.671925 20.60287,-12.120371 c 11.33159,-6.666205 20.64147,-12.120371 20.68863,-12.120371 0.0472,0 0.0825,10.191751 0.0784,22.648334 l -0.007,22.648336 -19.43237,13.75771 c -10.6878,7.56675 -19.98091,14.14419 -20.65136,14.61655 l -1.21902,0.85882 z m -36.74534,-69.463589 v -21.4658 l 20.65038,-12.146868 c 11.3577,-6.680777 20.6922,-12.1468676 20.74333,-12.1468676 0.0511,0 0.093,10.5551516 0.093,23.4558936 v 23.455893 l -0.41604,-0.104418 c -0.32802,-0.08233 -4.69584,2.066495 -20.64523,10.156773 -11.12605,5.643656 -20.27334,10.261194 -20.32729,10.261194 -0.054,0 -0.0981,-9.659611 -0.0981,-21.4658 z"
           id="path863"
           sodipodi:nodetypes="csscsssscssccssccccssscssscc" />
      </g>
    </g>
  </g>
</svg>
