<?xml version="1.0" encoding="UTF-8" standalone="no"?>
<svg
   xmlns:dc="http://purl.org/dc/elements/1.1/"
   xmlns:cc="http://creativecommons.org/ns#"
   xmlns:rdf="http://www.w3.org/1999/02/22-rdf-syntax-ns#"
   xmlns:svg="http://www.w3.org/2000/svg"
   xmlns="http://www.w3.org/2000/svg"
   xmlns:sodipodi="http://sodipodi.sourceforge.net/DTD/sodipodi-0.dtd"
   xmlns:inkscape="http://www.inkscape.org/namespaces/inkscape"
   width="512"
   height="512"
   viewBox="0 0 135.46666 135.46667"
   version="1.1"
   id="svg920"
   inkscape:version="1.0.1 (3bc2e813f5, 2020-09-07)"
   sodipodi:docname="fabber.svg">
  <defs
     id="defs914" />
  <sodipodi:namedview
     id="base"
     pagecolor="#ffffff"
     bordercolor="#666666"
     borderopacity="1.0"
     inkscape:pageopacity="0.0"
     inkscape:pageshadow="2"
     inkscape:zoom="0.98994949"
     inkscape:cx="350.6308"
     inkscape:cy="341.45022"
     inkscape:document-units="mm"
     inkscape:current-layer="layer1"
     inkscape:document-rotation="0"
     showgrid="false"
     units="px"
     inkscape:window-width="1920"
     inkscape:window-height="1017"
     inkscape:window-x="1912"
     inkscape:window-y="-8"
     inkscape:window-maximized="1" />
  <metadata
     id="metadata917">
    <rdf:RDF>
      <cc:Work
         rdf:about="">
        <dc:format>image/svg+xml</dc:format>
        <dc:type
           rdf:resource="http://purl.org/dc/dcmitype/StillImage" />
        <dc:title></dc:title>
      </cc:Work>
    </rdf:RDF>
  </metadata>
  <g
     inkscape:label="Layer 1"
     inkscape:groupmode="layer"
     id="layer1">
    <g
       id="g861"
       transform="matrix(0.43822643,0,0,0.43822643,154.81448,5.8270327)">
      <path
         style="fill:#fefefe;stroke-width:0.169333"
         d="m -338.47142,243.46073 0.0441,-15.91564 7.74529,-0.044 7.74528,-0.044 0.0446,-5.54567 0.0446,-5.54567 h -7.79165 -7.79165 V 204.851 193.33633 h 9.906 9.906 v -5.67267 -5.67266 h -16.002 -16.002 V 93.598994 5.2069921 h 78.60522 78.60523 l -20.68561,12.1496669 -20.6856,12.149667 -0.008,46.106958 c -0.007,43.863316 0.007,46.098846 0.28872,45.940146 0.16298,-0.0918 8.37353,-4.92212 18.24567,-10.73416 l 17.94933,-10.56736 0.043,20.47876 c 0.0241,11.45298 0.10766,20.45398 0.18969,20.42254 0.0807,-0.0309 9.45066,-6.64751 20.82221,-14.70355 l 20.67553,-14.64733 0.005,-22.792951 0.005,-22.79295 -17.653,-6.659313 c -9.70915,-3.662623 -17.93875,-6.771405 -18.288,-6.908404 l -0.63493,-0.249091 V 28.803307 5.2069921 h 73.06734 73.06734 L -47.020133,131.826 c -0.0105,111.92432 -0.04098,126.54039 -0.262246,125.94167 -0.612225,-1.65664 -0.739716,-3.67511 -0.743323,-11.76867 -0.0037,-8.24709 -0.148302,-11.65435 -0.596578,-14.05467 -0.95653,-5.12191 -2.708606,-7.86949 -6.276866,-9.84328 l -1.032933,-0.57136 0.985639,-0.57572 c 3.769834,-2.20194 5.988016,-6.27292 6.587372,-12.08967 0.323409,-3.13865 0.125628,-12.25205 -0.311286,-14.34264 -1.52356,-7.29032 -5.336964,-10.91521 -12.746872,-12.11674 -1.473539,-0.23893 -3.517291,-0.29925 -12.472637,-0.36808 l -10.710335,-0.0823 v 38.7109 38.71092 l -9.186334,9e-5 -9.186338,8e-5 0.0468,-5.58808 0.0468,-5.58809 h -10.50314 -10.50313 V 236.93966 225.679 h 8.29733 8.29733 v -5.588 -5.588 h -8.29733 -8.29733 v -10.58205 -10.58203 l 10.45633,-0.0436 10.45633,-0.0436 v -5.588 -5.588 l -16.55233,-0.0432 -16.55233,-0.0432 v 38.69349 38.6935 l -17.82234,-0.0305 c -9.80228,-0.0168 -17.44133,-0.0544 -16.97567,-0.0836 3.97631,-0.24948 7.64784,-1.37475 10.18811,-3.12251 3.49003,-2.40121 5.71632,-6.70656 6.31292,-12.20832 0.23358,-2.15406 0.22906,-10.06711 -0.007,-12.42326 -0.42054,-4.19581 -1.78657,-7.83859 -3.73807,-9.96832 -1.1346,-1.23823 -2.01663,-1.90102 -3.74796,-2.81638 l -1.15209,-0.60911 1.1418,-0.66264 c 4.44591,-2.58016 6.5012,-7.73592 6.49493,-16.29286 -0.009,-11.73274 -3.8938,-17.18513 -13.37588,-18.77121 -1.30822,-0.21883 -3.60898,-0.2844 -12.319,-0.35106 l -10.71033,-0.082 v 38.7109 38.71092 l -17.82234,-0.0241 c -9.80228,-0.0132 -17.12227,-0.0816 -16.26663,-0.15184 8.7276,-0.71648 13.71466,-4.9216 15.49498,-13.06551 0.35832,-1.63911 0.38159,-2.13842 0.38513,-8.26385 0.003,-5.64315 -0.0385,-6.74692 -0.3108,-8.21267 -0.39897,-2.14765 -1.12048,-4.36172 -1.92453,-5.90569 -0.92386,-1.77405 -3.05824,-3.84591 -5.0121,-4.86526 l -1.49563,-0.78031 0.90296,-0.51242 c 2.13568,-1.21202 3.71946,-2.92157 4.8251,-5.20832 1.22362,-2.53077 1.72486,-5.12553 1.86448,-9.652 0.15426,-5.0009 -0.26528,-8.51068 -1.36986,-11.45982 -0.79733,-2.12882 -1.52342,-3.25662 -3.14676,-4.88772 -1.19669,-1.20242 -1.71053,-1.57949 -3.048,-2.23676 -1.79287,-0.88106 -3.36477,-1.36225 -5.75734,-1.76247 -1.30822,-0.21883 -3.60899,-0.2844 -12.319,-0.35106 l -10.71033,-0.082 v 38.7109 38.71092 h -8.2604 -8.26041 l -0.033,-0.39913 c -0.0686,-0.82872 -12.24403,-76.69798 -12.33102,-76.83875 -0.11913,-0.19275 -17.63383,-0.19275 -17.75296,0 -0.087,0.14077 -12.26243,76.01003 -12.33102,76.83875 l -0.033,0.39913 -16.00741,2e-5 h -16.0074 l 0.0441,-15.91562 z m 266.192035,0.16762 0.04408,-15.74802 2.411256,0.006 c 3.897562,0.009 5.915593,0.54637 7.315133,1.94591 0.761813,0.76181 1.206906,1.64072 1.655385,3.26888 0.340174,1.23496 0.36317,1.82163 0.468986,11.96663 l 0.111286,10.668 0.458216,1.67737 c 0.252002,0.92254 0.497959,1.74169 0.546557,1.82033 0.0486,0.0786 -2.868879,0.14297 -6.483299,0.14299 l -6.571658,10e-6 0.04406,-15.74801 z m -163.027405,-7.1936 v -11.80298 l 4.02167,0.0673 c 3.66732,0.0614 4.10588,0.10053 4.97752,0.44443 1.87527,0.73989 2.84246,1.73113 3.41389,3.4988 0.57221,1.77009 0.65017,2.97627 0.58624,9.06966 -0.0558,5.32191 -0.0984,6.09682 -0.3762,6.84768 -0.61331,1.65777 -1.60034,2.64471 -3.22512,3.22486 -0.70105,0.25031 -1.58203,0.31529 -5.12233,0.37775 l -4.27567,0.0754 z m 55.71067,0.0156 v -11.78737 l 3.51367,0.003 c 3.87119,0.003 5.07343,0.18126 6.51867,0.96786 0.99935,0.54392 1.56601,1.18088 2.11721,2.37997 0.73831,1.60607 0.87701,3.03858 0.8807,9.09567 0.004,7.12849 -0.2031,8.17336 -1.92334,9.68758 -1.29877,1.14322 -1.95649,1.27448 -6.83124,1.36326 l -4.27567,0.0779 v -11.78736 z m -111.937,-1.92367 c -0.004,-0.0699 1.26957,-8.68312 2.83062,-19.14061 l 2.83827,-19.01361 2.7465,18.33628 c 1.51058,10.08495 2.79665,18.69823 2.85794,19.14061 l 0.11144,0.80433 h -5.68855 c -3.12871,0 -5.69201,-0.0572 -5.69622,-0.127 z M -73.424112,204.9689 v -11.76228 l 3.344334,0.0681 c 5.416753,0.11023 5.619496,0.12915 6.561667,0.61209 1.478889,0.75805 2.283003,1.94017 2.718985,3.99718 0.354093,1.67057 0.341224,12.54617 -0.01659,14.06438 -0.519447,2.20371 -1.593326,3.47703 -3.607851,4.27785 -0.877874,0.34897 -1.290303,0.38564 -4.978823,0.44276 l -4.021667,0.0623 V 204.9689 Z m -161.882678,-1.55724 v -10.07533 h 3.71898 c 3.29187,0 3.82181,0.0385 4.61433,0.33523 1.80946,0.67749 2.77342,1.94384 3.25182,4.27196 0.35906,1.74735 0.37548,8.82892 0.0243,10.48568 -0.46301,2.18443 -1.44955,3.50569 -3.21972,4.31212 -1.21554,0.55376 -2.66984,0.74293 -5.72273,0.74439 l -2.667,10e-4 z m 55.71067,0.011 v -10.1038 l 3.94977,0.051 3.94977,0.051 0.99595,0.50976 c 1.2513,0.64045 1.98631,1.58019 2.49072,3.1845 0.36029,1.14593 0.38246,1.50094 0.38246,6.12707 0,4.18997 -0.0433,5.05044 -0.29486,5.86298 -0.60852,1.96539 -1.98581,3.36577 -3.91292,3.97854 -0.63619,0.2023 -1.77726,0.29972 -4.21656,0.36002 l -3.34433,0.0827 z"
         id="path877" />
      <path
         style="fill:#c7c9cb;stroke-width:0.169333"
         d="m -344.57,259.2504 5.96813,-0.0477 0.0432,-15.87285 0.0432,-15.87286 7.70467,-0.003 7.70467,-0.003 -7.66147,0.0466 -7.66146,0.0466 -0.0432,15.87329 -0.0432,15.87324 -6.01133,0.003 -6.01133,0.003 5.96813,-0.0477 z m 38.0847,-0.002 c -0.0432,-0.0699 9.50816,-0.127 21.22517,-0.127 11.71702,0 21.26834,0.0571 21.22517,0.127 -0.0432,0.0698 -9.59449,0.127 -21.22517,0.127 -11.63067,0 -21.182,-0.0572 -21.22517,-0.127 z m 64.03633,8e-5 c 2.82396,-0.0261 7.39596,-0.0261 10.16,3e-5 2.76403,0.0261 0.45351,0.0474 -5.13449,0.0474 -5.588,-4e-5 -7.84948,-0.0214 -5.02551,-0.0475 z m 55.71067,0 c 2.82396,-0.0261 7.39596,-0.0261 10.16,3e-5 2.76403,0.0261 0.45351,0.0474 -5.13449,0.0474 -5.588,-4e-5 -7.84948,-0.0214 -5.02551,-0.0475 z m 58.81831,-3e-5 c 4.53316,-0.0251 12.00076,-0.0251 16.59467,-2e-5 4.5939,0.0251 0.88494,0.0456 -8.24213,0.0456 -9.12707,0 -12.88571,-0.0205 -8.35254,-0.0456 z m 49.414963,0.002 6.095154,-0.0476 0.04454,-15.66123 0.04453,-15.66124 -0.0017,15.70569 -0.0017,15.70566 -6.138368,0.003 -6.138385,0.003 6.095171,-0.0476 z m 19.246225,-0.002 c -0.07166,-0.11568 4.550749,-0.11288 10.134025,0.006 1.210734,0.0258 -0.556412,0.0636 -3.927009,0.0839 -3.370581,0.0203 -6.163751,-0.0202 -6.207016,-0.09 z m -156.066658,-4.00037 c 0,-0.0351 0.13335,-0.1685 0.29634,-0.29633 0.26857,-0.21062 0.27456,-0.20464 0.0639,0.0639 -0.22121,0.28206 -0.36027,0.37177 -0.36027,0.23239 z m 55.88001,-0.15838 c 0,-0.0291 0.24765,-0.27679 0.55033,-0.55033 l 0.55033,-0.49735 -0.49734,0.55034 c -0.46361,0.51299 -0.60332,0.62817 -0.60332,0.49734 z m -55.03334,-0.68828 c 0,-0.0352 0.13335,-0.16851 0.29633,-0.29634 0.26858,-0.21062 0.27457,-0.20464 0.0639,0.0639 -0.22121,0.28206 -0.36027,0.37177 -0.36027,0.2324 z M -60.346159,253.619 c 0,-0.32597 0.03485,-0.45932 0.07744,-0.29633 0.0426,0.16298 0.0426,0.42968 0,0.59266 -0.04259,0.16299 -0.07744,0.0296 -0.07744,-0.29633 z m 12.23049,-9.05933 c 5.1e-5,-4.09787 0.02213,-5.75004 0.04909,-3.67149 0.02696,2.07855 0.02692,5.43135 -6.8e-5,7.45067 -0.02701,2.01931 -0.04905,0.31868 -0.04902,-3.77918 z m -179.602871,3.52499 c 0.12224,-0.0489 0.26829,-0.0429 0.32456,0.0134 0.0563,0.0563 -0.0437,0.0963 -0.22225,0.089 -0.19727,-0.008 -0.23739,-0.0483 -0.10231,-0.10231 z m 55.71067,0 c 0.12224,-0.0489 0.26829,-0.0429 0.32456,0.0134 0.0563,0.0563 -0.0437,0.0963 -0.22225,0.089 -0.19727,-0.008 -0.23739,-0.0483 -0.10231,-0.10231 z m 3.75708,-1.49299 c 0.21873,-0.23284 0.4358,-0.42334 0.48237,-0.42334 0.0466,0 -0.0943,0.1905 -0.31303,0.42334 -0.21873,0.23283 -0.4358,0.42333 -0.48237,0.42333 -0.0466,0 0.0943,-0.1905 0.31303,-0.42333 z m -41.7986,-3.97934 c 0,-0.23283 0.0384,-0.32808 0.0854,-0.21167 0.047,0.11642 0.047,0.30692 0,0.42334 -0.047,0.11642 -0.0854,0.0212 -0.0854,-0.21167 z m 55.72322,-0.16933 c 0,-0.32597 0.0348,-0.45932 0.0774,-0.29634 0.0426,0.16299 0.0426,0.42969 0,0.59267 -0.0426,0.16299 -0.0774,0.0296 -0.0774,-0.29633 z m -67.86835,-5.24934 c 0,-2.3749 0.0238,-3.34645 0.0529,-2.159 0.0291,1.18745 0.0291,3.13055 0,4.318 -0.0291,1.18745 -0.0529,0.2159 -0.0529,-2.159 z m 55.71029,0 c 0,-2.28176 0.024,-3.21521 0.0533,-2.07433 0.0293,1.14088 0.0293,3.00778 0,4.14867 -0.0293,1.14088 -0.0533,0.20743 -0.0533,-2.07434 z m 105.942813,-1.96143 c 0.0081,-0.19728 0.04826,-0.23739 0.102311,-0.10232 0.04892,0.12225 0.04291,0.2683 -0.01338,0.32457 -0.05627,0.0563 -0.0963,-0.0438 -0.08895,-0.22225 z M -291.69495,234.696 c -8e-5,-0.0699 1.69537,-0.10758 3.76767,-0.0838 7.15999,0.082 7.81014,0.13775 2.03215,0.17423 -3.18982,0.0201 -5.79973,-0.0205 -5.79982,-0.0904 z m 137.36878,-1.56634 c 0,-0.32596 0.0348,-0.45931 0.0774,-0.29633 0.0426,0.16298 0.0426,0.42968 0,0.59267 -0.0426,0.16298 -0.0774,0.0296 -0.0774,-0.29634 z m -55.72322,-0.16933 c 0,-0.23283 0.0384,-0.32808 0.0854,-0.21167 0.047,0.11642 0.047,0.30692 0,0.42334 -0.047,0.11641 -0.0854,0.0212 -0.0854,-0.21167 z M -52.279051,224.028 c -0.210616,-0.26858 -0.204639,-0.27456 0.06394,-0.0639 0.282058,0.22121 0.371771,0.36027 0.232393,0.36027 -0.03515,0 -0.168504,-0.13335 -0.296334,-0.29633 z m -18.724322,-7.28034 c 0.726033,-0.0318 1.869033,-0.0316 2.54,0 0.670966,0.0321 0.07693,0.0581 -1.320072,0.0579 -1.397,0 -1.945962,-0.0265 -1.219928,-0.0583 z m -267.513857,-11.98133 0.002,-11.51467 9.90601,-0.002 9.906,-0.002 -9.8625,0.0457 -9.86249,0.0457 -0.0453,11.47098 -0.0453,11.47098 0.002,-11.51467 z m 122.68377,11.37702 c 0,-0.0291 0.24765,-0.2768 0.55034,-0.55034 l 0.55033,-0.49735 -0.49735,0.55034 c -0.46359,0.51299 -0.60332,0.62817 -0.60332,0.49735 z m 55.71067,0 c 0,-0.0291 0.24765,-0.2768 0.55034,-0.55034 l 0.55033,-0.49735 -0.49735,0.55034 c -0.4636,0.51299 -0.60332,0.62817 -0.60332,0.49735 z m 40.34367,-1.59788 c 2.30505,-0.0266 6.07695,-0.0266 8.38201,0 2.30505,0.0266 0.4191,0.0484 -4.19101,0.0484 -4.6101,0 -6.49605,-0.0218 -4.191,-0.0484 z m 59.298934,-9.69447 c 0,-2.6543 0.02342,-3.74015 0.05202,-2.413 0.02862,1.32715 0.02862,3.49885 0,4.826 -0.0286,1.32715 -0.05202,0.2413 -0.05202,-2.413 z m 12.150412,2.794 c 0.0034,-0.2794 0.0414,-0.3732 0.08434,-0.20845 0.04293,0.16476 0.04012,0.39336 -0.0063,0.508 -0.04638,0.11465 -0.0815,-0.0202 -0.07806,-0.29955 z m -162.861716,-6.43467 c 1.7e-4,-1.6764 0.0255,-2.33929 0.0563,-1.4731 0.0308,0.86619 0.0306,2.23779 -3.4e-4,3.048 -0.031,0.81021 -0.0562,0.1015 -0.056,-1.5749 z m 55.71,0 c 0,-1.58327 0.0252,-2.25376 0.0566,-1.48998 0.0313,0.76378 0.0315,2.05918 0,2.87867 -0.0311,0.81949 -0.0567,0.19458 -0.0569,-1.38869 z m 107.151716,-3.048 c 0.0034,-0.2794 0.0414,-0.37319 0.08434,-0.20845 0.04293,0.16476 0.04012,0.39336 -0.0063,0.508 -0.04638,0.11466 -0.0815,-0.0202 -0.07806,-0.29955 z m -185.317006,-4.95241 c 0.95957,-0.0302 2.48357,-0.0301 3.38666,0 0.9031,0.0304 0.118,0.0551 -1.74467,0.055 -1.86267,-1.6e-4 -2.60156,-0.025 -1.64199,-0.0553 z m 55.71067,0 c 0.95958,-0.0302 2.48358,-0.0301 3.38667,0 0.90308,0.0304 0.11799,0.0551 -1.74468,0.055 -1.86267,-1.6e-4 -2.60157,-0.025 -1.64199,-0.0553 z m 59.26987,0 c 2.91714,-0.026 7.64154,-0.026 10.49867,4e-5 2.85713,0.026 0.47039,0.0473 -5.30388,0.0473 -5.77427,-3e-5 -8.11193,-0.0213 -5.19479,-0.0473 z m 48.34125,0 c 0.912893,-0.0305 2.360693,-0.0304 3.217334,0 0.856657,0.0307 0.109744,0.0556 -1.659789,0.0555 -1.769533,-1.7e-4 -2.470421,-0.0253 -1.557545,-0.0558 z m 17.546728,-6.94332 -0.410515,-0.46567 0.465667,0.41051 c 0.256116,0.22579 0.465666,0.43534 0.465666,0.46567 0,0.13281 -0.137126,0.0247 -0.520818,-0.41051 z m -289.830698,-4.23324 c 4.45418,-0.0251 11.69318,-0.0251 16.08667,2e-5 4.39349,0.0251 0.74916,0.0457 -8.09851,0.0457 -8.84767,-2e-5 -12.44234,-0.0206 -7.98816,-0.0457 z m 52.90383,9e-5 c 2.44475,-0.0264 6.44525,-0.0264 8.89,0 2.44475,0.0265 0.4445,0.0481 -4.445,0.0481 -4.8895,0 -6.88975,-0.0216 -4.445,-0.0481 z m 46.82067,0 c 2.58445,-0.0263 6.81355,-0.0263 9.398,0 2.58445,0.0263 0.4699,0.0478 -4.699,0.0478 -5.1689,0 -7.28345,-0.0215 -4.699,-0.0478 z m 55.71067,0 c 2.58445,-0.0263 6.81355,-0.0263 9.398,0 2.58445,0.0263 0.4699,0.0478 -4.699,0.0478 -5.1689,0 -7.28345,-0.0215 -4.699,-0.0478 z m 59.2538,-7e-5 c 4.53316,-0.0251 12.00076,-0.0251 16.59467,-2e-5 4.5939,0.0251 0.88494,0.0456 -8.24213,0.0456 -9.12707,0 -12.88571,-0.0205 -8.35254,-0.0456 z m 47.934211,7e-5 c 2.58445,-0.0263 6.81355,-0.0263 9.398001,0 2.58445,0.0263 0.4699,0.0478 -4.699001,0.0478 -5.1689,0 -7.28345,-0.0215 -4.699,-0.0478 z M -193.22979,28.828993 c 1e-5,-13.038667 0.0201,-18.347662 0.0447,-11.797767 0.0246,6.549896 0.0245,17.217897 0,23.706667 -0.0246,6.488772 -0.0447,1.129767 -0.0447,-11.9089 z"
         id="path875" />
      <path
         style="fill:#95989d;stroke-width:0.169333"
         d="m -225.68654,259.09133 c 0.12224,-0.0489 0.26829,-0.0429 0.32456,0.0134 0.0563,0.0563 -0.0438,0.0963 -0.22225,0.089 -0.19727,-0.008 -0.23739,-0.0483 -0.10231,-0.10232 z m 55.71067,0 c 0.12224,-0.0489 0.26829,-0.0429 0.32456,0.0134 0.0563,0.0563 -0.0438,0.0963 -0.22225,0.089 -0.19727,-0.008 -0.23739,-0.0483 -0.10231,-0.10232 z m 66.99422,-5.38766 c -7e-5,-3.0734 0.0228,-4.3546 0.0508,-2.84709 0.028,1.50751 0.0281,4.02211 1.2e-4,5.588 -0.028,1.56589 -0.0509,0.33249 -0.051,-2.74091 z m 54.9709,1.17122 c 0.0081,-0.19727 0.04826,-0.23739 0.102312,-0.10231 0.04892,0.12224 0.04291,0.26829 -0.01338,0.32456 -0.05627,0.0563 -0.0963,-0.0437 -0.08895,-0.22225 z m -12.296462,-9.72256 c 0,-4.42383 0.02188,-6.23358 0.04861,-4.02167 0.02674,2.21192 0.02674,5.83142 0,8.04334 -0.02674,2.21192 -0.04861,0.40217 -0.04861,-4.02167 z m 12.153054,7.28134 c 0,-0.32597 0.03485,-0.45932 0.07744,-0.29634 0.0426,0.16299 0.0426,0.42969 0,0.59267 -0.04259,0.16298 -0.07744,0.0296 -0.07744,-0.29633 z M -210.002,237.78633 c -9e-5,-2.5146 0.0235,-3.5669 0.0524,-2.33846 0.0289,1.22845 0.029,3.28585 1.6e-4,4.572 -0.0288,1.28616 -0.0524,0.28106 -0.0525,-2.23354 z m -12.23939,3.97933 c 0,-0.23283 0.0384,-0.32808 0.0854,-0.21166 0.047,0.11641 0.047,0.30691 0,0.42333 -0.047,0.11642 -0.0854,0.0212 -0.0854,-0.21167 z m 55.71694,-0.0847 c 0.003,-0.2794 0.0414,-0.3732 0.0844,-0.20845 0.0429,0.16476 0.0401,0.39336 -0.006,0.508 -0.0464,0.11465 -0.0815,-0.0202 -0.0781,-0.29955 z m 12.23242,-3.89467 c -1.2e-4,-2.32833 0.0237,-3.30432 0.053,-2.16885 0.0293,1.13546 0.0293,3.04046 0,4.23333 -0.0292,1.19287 -0.0531,0.26385 -0.0532,-2.06448 z m 105.942614,-2.89277 c 0.0081,-0.19727 0.04826,-0.23739 0.102311,-0.10231 0.04892,0.12224 0.04291,0.26829 -0.01338,0.32456 -0.05627,0.0563 -0.0963,-0.0438 -0.08895,-0.22225 z m -231.817344,-0.33867 c 0.008,-0.19727 0.0482,-0.23739 0.10231,-0.10231 0.0489,0.12224 0.0429,0.26829 -0.0134,0.32456 -0.0563,0.0563 -0.0963,-0.0437 -0.0889,-0.22225 z m 113.64231,-1.84856 c 0.003,-0.2794 0.0414,-0.37319 0.0844,-0.20845 0.0429,0.16476 0.0401,0.39336 -0.006,0.508 -0.0464,0.11466 -0.0815,-0.0202 -0.0781,-0.29955 z m -55.71066,-0.16933 c 0.003,-0.2794 0.0414,-0.3732 0.0843,-0.20845 0.0429,0.16476 0.0401,0.39336 -0.006,0.508 -0.0464,0.11465 -0.0815,-0.0202 -0.0781,-0.29955 z m -100.71057,-10.668 c -6e-5,-3.0734 0.0228,-4.3546 0.0509,-2.84709 0.028,1.50751 0.0281,4.02211 1.2e-4,5.588 -0.028,1.56589 -0.0509,0.33249 -0.051,-2.74091 z m 89.20522,2.66776 c 0.90805,-0.0304 2.39395,-0.0304 3.302,0 0.90805,0.0305 0.1651,0.0554 -1.651,0.0554 -1.8161,0 -2.55905,-0.0249 -1.651,-0.0554 z m 55.71067,0 c 0.90805,-0.0304 2.39395,-0.0304 3.302,0 0.90805,0.0305 0.1651,0.0554 -1.651,0.0554 -1.8161,0 -2.55905,-0.0249 -1.651,-0.0554 z m 124.92568,-5.00675 c 0,-0.0291 0.24765,-0.27679 0.550333,-0.55033 l 0.550333,-0.49735 -0.497349,0.55033 c -0.463601,0.513 -0.603317,0.62818 -0.603317,0.49735 z m -14.097002,-2.7685 c 0.116417,-0.047 0.306917,-0.047 0.423334,0 0.116416,0.047 0.02117,0.0854 -0.211667,0.0854 -0.232833,0 -0.328083,-0.0384 -0.211667,-0.0854 z m 6.673072,-6.83051 c 0,-0.23284 0.03844,-0.32809 0.08541,-0.21167 0.04697,0.11642 0.04697,0.30692 0,0.42333 -0.04697,0.11642 -0.08541,0.0212 -0.08541,-0.21166 z m 12.239042,-7.02734 c 1.01e-4,-2.42146 0.02388,-3.38851 0.05285,-2.14901 0.02897,1.23952 0.02889,3.22072 0,4.40267 -0.02908,1.18196 -0.05278,0.16781 -0.05268,-2.25366 z m -175.093302,0.33867 c -1.6e-4,-1.86267 0.0246,-2.64776 0.055,-1.74467 0.0304,0.90308 0.0305,2.42708 3.4e-4,3.38666 -0.0302,0.95958 -0.0551,0.22068 -0.0553,-1.64199 z m 55.71009,0 c 1.7e-4,-1.76953 0.0253,-2.47042 0.0558,-1.55754 0.0305,0.91289 0.0304,2.36069 0,3.21733 -0.0307,0.85666 -0.0556,0.10974 -0.0555,-1.65979 z m -43.74521,2.5259 c 0.008,-0.19728 0.0482,-0.23739 0.1023,-0.10232 0.0489,0.12225 0.0429,0.2683 -0.0134,0.32457 -0.0563,0.0563 -0.0963,-0.0438 -0.0889,-0.22225 z M -60.52804,199.771 c 0,-0.23284 0.03844,-0.32809 0.08541,-0.21167 0.04697,0.11642 0.04697,0.30692 0,0.42333 -0.04697,0.11642 -0.08541,0.0212 -0.08541,-0.21166 z m -95.17872,-2.97744 c 0.008,-0.19728 0.0483,-0.23739 0.10231,-0.10231 0.0489,0.12224 0.0429,0.26829 -0.0134,0.32456 -0.0563,0.0563 -0.0963,-0.0438 -0.089,-0.22225 z m -72.85845,-3.5729 c 0.12224,-0.0489 0.26829,-0.0429 0.32456,0.0134 0.0563,0.0563 -0.0438,0.0963 -0.22225,0.089 -0.19727,-0.008 -0.23739,-0.0483 -0.10231,-0.10231 z m 55.71067,0 c 0.12225,-0.0489 0.2683,-0.0429 0.32456,0.0134 0.0563,0.0563 -0.0438,0.0963 -0.22225,0.089 -0.19727,-0.008 -0.23738,-0.0483 -0.10231,-0.10231 z m 69.87289,-5.557 c -7e-5,-3.0734 0.0228,-4.35459 0.0508,-2.84708 0.028,1.5075 0.0281,4.0221 1.2e-4,5.588 -0.028,1.56589 -0.0509,0.33248 -0.051,-2.74092 z m -123.56214,-5.44615 c 0.11642,-0.047 0.30692,-0.047 0.42333,0 0.11642,0.047 0.0212,0.0854 -0.21166,0.0854 -0.23284,0 -0.32809,-0.0384 -0.21167,-0.0854 z m 55.71067,0 c 0.11642,-0.047 0.30692,-0.047 0.42333,0 0.11642,0.047 0.0212,0.0854 -0.21166,0.0854 -0.23284,0 -0.32809,-0.0384 -0.21167,-0.0854 z m 107.367925,-0.004 c 0.122242,-0.0489 0.268292,-0.0429 0.324562,0.0134 0.05627,0.0563 -0.04376,0.0963 -0.22225,0.089 -0.197274,-0.008 -0.237389,-0.0483 -0.102312,-0.10232 z M -156.65387,88.942328 c 0,-12.573001 0.0201,-17.741493 0.0447,-11.485537 0.0246,6.255956 0.0246,16.542956 0,22.859999 -0.0246,6.31705 -0.0447,1.19854 -0.0447,-11.374462 z"
         id="path873" />
      <path
         style="fill:#d65061;stroke-width:0.169333"
         d="m -84.519917,205.02033 c 0,-6.5659 0.02103,-9.25195 0.04674,-5.969 0.02571,3.28295 0.02571,8.65505 0,11.938 -0.0257,3.28295 -0.04674,0.5969 -0.04674,-5.969 z m 11.006634,-0.0847 c 1.7e-5,-6.51933 0.02107,-9.16169 0.04679,-5.87192 0.02571,3.28978 0.02569,8.62378 -3.4e-5,11.85334 -0.02574,3.22956 -0.04677,0.53792 -0.04675,-5.98142 z"
         id="path871" />
      <path
         style="fill:#585d64;stroke-width:0.169333"
         d="m -247.41558,220.68366 c 1e-5,-21.2344 0.0197,-29.89603 0.0438,-19.2481 0.0241,10.64795 0.0241,28.02155 0,38.608 -0.0241,10.58647 -0.0438,1.8745 -0.0438,-19.3599 z m 21.22104,38.40767 c 0.12224,-0.0489 0.26829,-0.0429 0.32456,0.0134 0.0563,0.0563 -0.0437,0.0963 -0.22225,0.089 -0.19727,-0.008 -0.23739,-0.0483 -0.10231,-0.10232 z m 34.48963,-38.40767 c 1e-5,-21.2344 0.0197,-29.89603 0.0438,-19.2481 0.0241,10.64795 0.0241,28.02155 0,38.608 -0.0241,10.58647 -0.0438,1.8745 -0.0438,-19.3599 z m 21.22104,38.40767 c 0.12224,-0.0489 0.26829,-0.0429 0.32456,0.0134 0.0563,0.0563 -0.0437,0.0963 -0.22225,0.089 -0.19727,-0.008 -0.23739,-0.0483 -0.10231,-0.10232 z m 85.965833,-21.051 c 0,-11.68823 0.0202,-16.46978 0.04491,-10.62567 0.02469,5.84412 0.02469,15.40722 0,21.25134 -0.02471,5.84412 -0.04491,1.06257 -0.04491,-10.62567 z m -75.604753,17.54673 c 0,-0.0352 0.13335,-0.16851 0.29634,-0.29633 0.26858,-0.21062 0.27456,-0.20464 0.0639,0.0639 -0.22122,0.28205 -0.36028,0.37177 -0.36028,0.23239 z m 99.920039,-0.54283 c 0.0081,-0.19728 0.04826,-0.23739 0.102312,-0.10231 0.04892,0.12224 0.04291,0.26829 -0.01338,0.32456 -0.05627,0.0563 -0.0963,-0.0438 -0.08895,-0.22225 z m -98.226699,-1.1505 c 0,-0.0352 0.13335,-0.16851 0.29633,-0.29634 0.26858,-0.21062 0.27456,-0.20464 0.0639,0.0639 -0.22122,0.28206 -0.36027,0.37177 -0.36027,0.2324 z m 110.262744,-0.6134 c 0,-0.23283 0.03844,-0.32808 0.08541,-0.21166 0.04697,0.11641 0.04697,0.30691 0,0.42333 -0.04697,0.11642 -0.08541,0.0212 -0.08541,-0.21167 z m -162.065384,-9.4121 c 0.008,-0.19728 0.0482,-0.23739 0.10231,-0.10231 0.0489,0.12224 0.0429,0.26829 -0.0134,0.32456 -0.0563,0.0563 -0.0963,-0.0438 -0.0889,-0.22225 z m 55.71067,-0.16934 c 0.008,-0.19727 0.0483,-0.23739 0.10231,-0.10231 0.0489,0.12224 0.0429,0.26829 -0.0134,0.32456 -0.0563,0.0563 -0.0963,-0.0438 -0.089,-0.22225 z m -67.73333,-1.35466 c 0.008,-0.19728 0.0482,-0.23739 0.1023,-0.10232 0.0489,0.12225 0.0429,0.2683 -0.0134,0.32457 -0.0563,0.0563 -0.0963,-0.0438 -0.0889,-0.22225 z M -60.342738,236.601 c 0.0019,-0.37254 0.03656,-0.505 0.07706,-0.29435 0.04051,0.21063 0.03896,0.51543 -0.0034,0.67733 -0.04238,0.16188 -0.07552,-0.0105 -0.07364,-0.38298 z m 12.012964,-1.016 c 0.0034,-0.2794 0.0414,-0.3732 0.08434,-0.20845 0.04293,0.16476 0.04012,0.39336 -0.0063,0.508 -0.04638,0.11465 -0.0815,-0.0202 -0.07806,-0.29955 z m -118.200936,-3.64067 c 0,-0.23283 0.0384,-0.32808 0.0854,-0.21167 0.047,0.11642 0.047,0.30692 0,0.42334 -0.047,0.11641 -0.0854,0.0212 -0.0854,-0.21167 z m -55.72404,-0.0988 c 0.008,-0.19727 0.0482,-0.23739 0.1023,-0.10231 0.0489,0.12224 0.0429,0.26829 -0.0134,0.32456 -0.0563,0.0563 -0.0963,-0.0438 -0.0889,-0.22225 z m 12.02266,-0.16933 c 0.008,-0.19728 0.0482,-0.23739 0.10231,-0.10232 0.0489,0.12225 0.0429,0.2683 -0.0134,0.32457 -0.0563,0.0563 -0.0963,-0.0438 -0.0889,-0.22225 z m 55.71067,0 c 0.008,-0.19728 0.0483,-0.23739 0.10231,-0.10232 0.0489,0.12225 0.0429,0.2683 -0.0134,0.32457 -0.0563,0.0563 -0.0963,-0.0438 -0.089,-0.22225 z m -69.70469,-5.36223 -0.49735,-0.55034 0.55034,0.49735 c 0.51298,0.4636 0.62816,0.60332 0.49734,0.60332 -0.0291,0 -0.27679,-0.24765 -0.55033,-0.55033 z m 55.79317,0.0847 -0.41051,-0.46566 0.46566,0.41051 c 0.25612,0.22579 0.46567,0.43534 0.46567,0.46567 0,0.13281 -0.13713,0.0247 -0.52082,-0.41052 z m 116.661889,-1.69333 c -0.210616,-0.26858 -0.204639,-0.27456 0.06394,-0.0639 0.282058,0.22122 0.371771,0.36027 0.232393,0.36027 -0.03515,0 -0.168504,-0.13335 -0.296334,-0.29633 z m -176.963489,-0.158 c 0.12224,-0.0489 0.26829,-0.0429 0.32456,0.0134 0.0563,0.0563 -0.0438,0.0963 -0.22225,0.089 -0.19727,-0.008 -0.23739,-0.0483 -0.10231,-0.10231 z m 55.71067,0 c 0.12224,-0.0489 0.26829,-0.0429 0.32456,0.0134 0.0563,0.0563 -0.0438,0.0963 -0.22225,0.089 -0.19727,-0.008 -0.23739,-0.0483 -0.10231,-0.10231 z m 120.236819,-0.858 c -0.210617,-0.26858 -0.204639,-0.27456 0.06394,-0.0639 0.282058,0.22122 0.371771,0.36027 0.232393,0.36027 -0.03515,0 -0.168504,-0.13335 -0.296334,-0.29633 z m -161.531519,-2.54 -0.58355,-0.635 0.635,0.58356 c 0.59104,0.54315 0.71285,0.68644 0.58355,0.68644 -0.0283,0 -0.31405,-0.28575 -0.635,-0.635 z m 55.71067,0 -0.58355,-0.635 0.635,0.58356 c 0.59104,0.54315 0.71286,0.68644 0.58355,0.68644 -0.0283,0 -0.31404,-0.28575 -0.635,-0.635 z m 85.312769,-4.39544 c 0.210634,-0.0405 0.515434,-0.039 0.677334,0.003 0.161882,0.0424 -0.0105,0.0755 -0.382982,0.0736 -0.372533,-0.002 -0.505003,-0.0366 -0.294352,-0.0771 z m 10.877686,-1.6375 c 0,-0.0351 0.13335,-0.1685 0.296334,-0.29633 0.268579,-0.21062 0.274557,-0.20464 0.06394,0.0639 -0.221217,0.28206 -0.360274,0.37177 -0.360274,0.23239 z m -171.661675,-1.58592 c 0.72178,-0.0318 1.90288,-0.0318 2.62466,0 0.72179,0.0317 0.13124,0.0577 -1.31233,0.0577 -1.44357,0 -2.03412,-0.026 -1.31233,-0.0577 z m 55.71067,0 c 0.72178,-0.0318 1.90288,-0.0318 2.62466,0 0.72179,0.0317 0.13124,0.0577 -1.31233,0.0577 -1.44357,0 -2.03412,-0.026 -1.31233,-0.0577 z m -47.28634,-1.45112 c 0,-0.0292 0.24765,-0.2768 0.55033,-0.55034 l 0.55034,-0.49735 -0.49735,0.55034 c -0.4636,0.51299 -0.60332,0.62817 -0.60332,0.49735 z m 55.71067,0 c 0,-0.0292 0.24765,-0.2768 0.55033,-0.55034 l 0.55034,-0.49735 -0.49735,0.55034 c -0.4636,0.51299 -0.60332,0.62817 -0.60332,0.49735 z m 121.42537,-3.26312 c 0.0081,-0.19728 0.04826,-0.23739 0.102311,-0.10232 0.04892,0.12225 0.04291,0.2683 -0.01338,0.32457 -0.05627,0.0563 -0.0963,-0.0438 -0.08895,-0.22225 z m -174.92134,-2.032 c 0.008,-0.19728 0.0482,-0.23739 0.10231,-0.10232 0.0489,0.12225 0.0429,0.2683 -0.0134,0.32457 -0.0563,0.0563 -0.0963,-0.0438 -0.0889,-0.22225 z m 55.72404,-0.0706 c 0,-0.23283 0.0384,-0.32808 0.0854,-0.21166 0.047,0.11641 0.047,0.30691 0,0.42333 -0.047,0.11642 -0.0854,0.0212 -0.0854,-0.21167 z m -43.70137,-1.45343 c 0.008,-0.19728 0.0482,-0.23739 0.1023,-0.10232 0.0489,0.12225 0.0429,0.2683 -0.0134,0.32457 -0.0563,0.0563 -0.0963,-0.0438 -0.0889,-0.22225 z m 55.72404,-0.0706 c 0,-0.23283 0.0384,-0.32808 0.0854,-0.21166 0.047,0.11641 0.047,0.30691 0,0.42333 -0.047,0.11642 -0.0854,0.0212 -0.0854,-0.21167 z m -12.02267,-5.41866 c 0,-0.23284 0.0384,-0.32809 0.0854,-0.21167 0.047,0.11642 0.047,0.30692 0,0.42333 -0.047,0.11642 -0.0854,0.0212 -0.0854,-0.21166 z m -55.72404,-0.0988 c 0.008,-0.19728 0.0482,-0.23739 0.10231,-0.10232 0.0489,0.12225 0.0429,0.2683 -0.0134,0.32457 -0.0563,0.0563 -0.0963,-0.0438 -0.0889,-0.22225 z m 12.03604,-2.44123 c 0,-0.23284 0.0384,-0.32809 0.0854,-0.21167 0.047,0.11642 0.047,0.30692 0,0.42333 -0.047,0.11642 -0.0854,0.0212 -0.0854,-0.21166 z m 55.69729,0.0706 c 0.008,-0.19728 0.0483,-0.23739 0.10231,-0.10231 0.0489,0.12224 0.0429,0.26829 -0.0134,0.32456 -0.0563,0.0563 -0.0963,-0.0438 -0.089,-0.22225 z m 107.18801,-0.508 c 0.0081,-0.19728 0.04826,-0.23739 0.102311,-0.10231 0.04892,0.12224 0.04291,0.26829 -0.01338,0.32456 -0.05627,0.0563 -0.0963,-0.0438 -0.08895,-0.22225 z m -176.81019,-2.22956 -0.41052,-0.46567 0.46567,0.41052 c 0.25612,0.22578 0.46567,0.43533 0.46567,0.46566 0,0.13281 -0.13713,0.0247 -0.52082,-0.41051 z m 55.79207,0.0847 -0.32258,-0.381 0.381,0.32258 c 0.35804,0.30314 0.45808,0.43942 0.32258,0.43942 -0.0321,0 -0.20359,-0.17145 -0.381,-0.381 z m -149.17547,-6.985 c -7e-5,-3.0734 0.0228,-4.35459 0.0508,-2.84708 0.028,1.5075 0.0281,4.0221 1.2e-4,5.588 -0.028,1.56589 -0.0509,0.33248 -0.051,-2.74092 z m 234.188021,0 c -6.8e-5,-3.0734 0.02281,-4.35459 0.05085,-2.84708 0.02804,1.5075 0.02809,4.0221 1.18e-4,5.588 -0.02797,1.56589 -0.05092,0.33248 -0.05097,-2.74092 z m 32.414602,-0.55033 c -0.210617,-0.26858 -0.20464,-0.27456 0.06394,-0.0639 0.162983,0.12783 0.296333,0.26118 0.296333,0.29633 0,0.13938 -0.139056,0.0497 -0.360273,-0.23239 z m -163.554403,-0.635 c -0.41132,-0.4191 -0.70975,-0.762 -0.66318,-0.762 0.0466,0 0.42119,0.3429 0.83251,0.762 0.41132,0.4191 0.70975,0.762 0.66318,0.762 -0.0466,0 -0.4212,-0.3429 -0.83251,-0.762 z m 55.61803,-0.127 -0.66936,-0.71967 0.71966,0.66936 c 0.66929,0.6225 0.79748,0.76998 0.66936,0.76998 -0.0277,0 -0.3515,-0.32385 -0.71966,-0.71967 z m 106.581706,-0.59267 c -0.210617,-0.26858 -0.204639,-0.27455 0.06394,-0.0639 0.162984,0.12783 0.296334,0.26118 0.296334,0.29634 0,0.13937 -0.139057,0.0497 -0.360274,-0.2324 z m -173.756736,-3.54115 c 0.11641,-0.047 0.30691,-0.047 0.42333,0 0.11642,0.047 0.0212,0.0854 -0.21167,0.0854 -0.23283,0 -0.32808,-0.0384 -0.21166,-0.0854 z m 55.71067,0 c 0.11641,-0.047 0.30691,-0.047 0.42333,0 0.11642,0.047 0.0212,0.0854 -0.21167,0.0854 -0.23283,0 -0.32808,-0.0384 -0.21166,-0.0854 z m 107.275889,-0.005 c 0.164762,-0.0429 0.393362,-0.0401 0.508,0.006 0.114656,0.0464 -0.02015,0.0815 -0.29955,0.0781 -0.2794,-0.003 -0.373194,-0.0414 -0.20845,-0.0843 z M -198.14079,120.69233 c 0,-11.3157 0.0202,-15.94485 0.045,-10.287 0.0247,5.65785 0.0247,14.91615 0,20.574 -0.0247,5.65785 -0.045,1.0287 -0.045,-10.287 z"
         id="path869" />
      <path
         style="fill:#c81329;stroke-width:0.169333"
         d="m -295.25183,258.91067 c -0.001,-0.31105 3.33692,-23.0468 3.48056,-23.70667 l 0.0829,-0.381 h 5.8311 5.8311 l 0.0975,0.55033 c 0.0932,0.52631 3.64206,23.70374 3.64281,23.79134 1.7e-4,0.0233 -4.26684,0.0423 -9.48231,0.0423 -8.91783,0 -9.48273,-0.0177 -9.4837,-0.29633 z M -84.43078,204.93566 V 193.167 h 5.418668 5.418667 v 11.76866 11.76867 h -5.418667 -5.418668 z M -216.46846,81.78391 c -9.98855,-4.89637 -18.161,-8.94874 -18.161,-9.005264 0,-0.05652 9.12167,-4.727384 20.27038,-10.379687 l 20.27037,-10.276913 1.61596,0.641596 c 0.88878,0.352877 9.2891,3.532039 18.66739,7.064807 9.37827,3.532766 16.99827,6.476018 16.93333,6.540561 -0.16237,0.161351 -41.05508,24.212393 -41.26609,24.270647 -0.0931,0.02571 -8.34179,-3.959376 -18.33034,-8.855747 z"
         id="path867" />
      <path
         style="fill:#572330;stroke-width:0.169333"
         d="m -295.40676,258.93889 c 0.008,-0.19727 0.0482,-0.23739 0.1023,-0.10231 0.0489,0.12224 0.0429,0.26829 -0.0134,0.32456 -0.0563,0.0563 -0.0963,-0.0437 -0.0889,-0.22225 z m 0.16933,-1.18533 c 0.008,-0.19727 0.0482,-0.23739 0.10231,-0.10231 0.0489,0.12224 0.0429,0.26829 -0.0134,0.32456 -0.0563,0.0563 -0.0963,-0.0438 -0.0889,-0.22225 z m 18.62667,-0.508 c 0.008,-0.19727 0.0483,-0.23739 0.10231,-0.10231 0.0489,0.12224 0.0429,0.26829 -0.0134,0.32456 -0.0563,0.0563 -0.0963,-0.0438 -0.0889,-0.22225 z m -18.45733,-0.67733 c 0.008,-0.19728 0.0482,-0.23739 0.1023,-0.10231 0.0489,0.12224 0.0429,0.26829 -0.0134,0.32456 -0.0563,0.0563 -0.0963,-0.0438 -0.0889,-0.22225 z m 0.16933,-1.016 c 0.008,-0.19728 0.0482,-0.23739 0.1023,-0.10231 0.0489,0.12224 0.0429,0.26829 -0.0134,0.32456 -0.0563,0.0563 -0.0963,-0.0438 -0.0889,-0.22225 z m 17.94933,-0.508 c 0.008,-0.19728 0.0482,-0.23739 0.10231,-0.10231 0.0489,0.12224 0.0429,0.26829 -0.0134,0.32456 -0.0563,0.0563 -0.0963,-0.0438 -0.0889,-0.22225 z m -17.78,-0.67734 c 0.008,-0.19727 0.0482,-0.23739 0.10231,-0.10231 0.0489,0.12224 0.0429,0.26829 -0.0134,0.32456 -0.0563,0.0563 -0.0963,-0.0437 -0.0889,-0.22225 z m 17.61067,-0.508 c 0.008,-0.19727 0.0482,-0.23739 0.10231,-0.10231 0.0489,0.12224 0.0429,0.26829 -0.0134,0.32456 -0.0563,0.0563 -0.0963,-0.0438 -0.0889,-0.22225 z m -17.44133,-0.67733 c 0.008,-0.19727 0.0482,-0.23739 0.1023,-0.10231 0.0489,0.12224 0.0429,0.26829 -0.0134,0.32456 -0.0563,0.0563 -0.0963,-0.0438 -0.0889,-0.22225 z m 17.272,-0.33867 c 0.008,-0.19727 0.0482,-0.23739 0.1023,-0.10231 0.0489,0.12224 0.0429,0.26829 -0.0134,0.32456 -0.0563,0.0563 -0.0963,-0.0438 -0.0889,-0.22225 z m -0.16934,-1.18533 c 0.008,-0.19727 0.0482,-0.23739 0.10231,-0.10231 0.0489,0.12224 0.0429,0.26829 -0.0134,0.32456 -0.0563,0.0563 -0.0963,-0.0438 -0.0889,-0.22225 z m -16.764,-0.67733 c 0.008,-0.19728 0.0482,-0.23739 0.10231,-0.10231 0.0489,0.12224 0.0429,0.26829 -0.0134,0.32456 -0.0563,0.0563 -0.0963,-0.0438 -0.0889,-0.22225 z m 16.59467,-0.33867 c 0.008,-0.19727 0.0482,-0.23739 0.10231,-0.10231 0.0489,0.12224 0.0429,0.26829 -0.0134,0.32456 -0.0563,0.0563 -0.0963,-0.0438 -0.0889,-0.22225 z m -16.42533,-0.84667 c 0.008,-0.19727 0.0482,-0.23739 0.1023,-0.10231 0.0489,0.12224 0.0429,0.26829 -0.0134,0.32456 -0.0563,0.0563 -0.0963,-0.0438 -0.0889,-0.22225 z m 16.256,-0.33866 c 0.008,-0.19728 0.0482,-0.23739 0.1023,-0.10231 0.0489,0.12224 0.0429,0.26829 -0.0134,0.32456 -0.0563,0.0563 -0.0963,-0.0438 -0.0889,-0.22225 z m -16.08667,-0.84667 c 0.008,-0.19727 0.0482,-0.23739 0.1023,-0.10231 0.0489,0.12224 0.0429,0.26829 -0.0134,0.32456 -0.0563,0.0563 -0.0963,-0.0438 -0.0889,-0.22225 z m 15.91733,-0.16933 c 0.008,-0.19728 0.0483,-0.23739 0.10231,-0.10231 0.0489,0.12224 0.0429,0.26829 -0.0134,0.32456 -0.0563,0.0563 -0.0963,-0.0438 -0.0889,-0.22225 z m -0.16933,-1.18534 c 0.008,-0.19727 0.0483,-0.23739 0.10231,-0.10231 0.0489,0.12224 0.0429,0.26829 -0.0134,0.32456 -0.0563,0.0563 -0.0963,-0.0437 -0.0889,-0.22225 z m -15.40933,-0.84666 c 0.008,-0.19728 0.0482,-0.23739 0.1023,-0.10231 0.0489,0.12224 0.0429,0.26829 -0.0134,0.32456 -0.0563,0.0563 -0.0963,-0.0438 -0.0889,-0.22225 z m 15.24,-0.16934 c 0.008,-0.19727 0.0482,-0.23739 0.1023,-0.10231 0.0489,0.12224 0.0429,0.26829 -0.0134,0.32456 -0.0563,0.0563 -0.0963,-0.0437 -0.0889,-0.22225 z m -15.07067,-1.016 c 0.008,-0.19727 0.0482,-0.23739 0.1023,-0.10231 0.0489,0.12224 0.0429,0.26829 -0.0134,0.32456 -0.0563,0.0563 -0.0963,-0.0438 -0.0889,-0.22225 z m 14.90133,-0.16933 c 0.008,-0.19727 0.0482,-0.23739 0.10231,-0.10231 0.0489,0.12224 0.0429,0.26829 -0.0134,0.32456 -0.0563,0.0563 -0.0963,-0.0438 -0.0889,-0.22225 z m -14.732,-1.016 c 0.008,-0.19727 0.0482,-0.23739 0.10231,-0.10231 0.0489,0.12224 0.0429,0.26829 -0.0134,0.32456 -0.0563,0.0563 -0.0963,-0.0438 -0.0889,-0.22225 z m 0.16934,-1.016 c 0.008,-0.19727 0.0482,-0.23739 0.1023,-0.10231 0.0489,0.12224 0.0429,0.26829 -0.0134,0.32456 -0.0563,0.0563 -0.0963,-0.0438 -0.0889,-0.22225 z m 14.224,-0.16933 c 0.008,-0.19728 0.0482,-0.23739 0.1023,-0.10232 0.0489,0.12225 0.0429,0.2683 -0.0134,0.32457 -0.0563,0.0563 -0.0963,-0.0438 -0.0889,-0.22225 z m -14.05467,-1.016 c 0.008,-0.19728 0.0482,-0.23739 0.1023,-0.10232 0.0489,0.12225 0.0429,0.2683 -0.0134,0.32457 -0.0563,0.0563 -0.0963,-0.0438 -0.0889,-0.22225 z m 0.16933,-1.18534 c 0.008,-0.19727 0.0482,-0.23739 0.10231,-0.10231 0.0489,0.12224 0.0429,0.26829 -0.0134,0.32456 -0.0563,0.0563 -0.0963,-0.0438 -0.0889,-0.22225 z m 13.54667,0 c 0.008,-0.19727 0.0482,-0.23739 0.10231,-0.10231 0.0489,0.12224 0.0429,0.26829 -0.0134,0.32456 -0.0563,0.0563 -0.0963,-0.0438 -0.0889,-0.22225 z m -13.37733,-1.18533 c 0.008,-0.19727 0.0482,-0.23739 0.1023,-0.10231 0.0489,0.12224 0.0429,0.26829 -0.0134,0.32456 -0.0563,0.0563 -0.0963,-0.0438 -0.0889,-0.22225 z m 0.16933,-1.016 c 0.008,-0.19727 0.0482,-0.23739 0.1023,-0.10231 0.0489,0.12224 0.0429,0.26829 -0.0134,0.32456 -0.0563,0.0563 -0.0963,-0.0438 -0.0889,-0.22225 z m 12.86933,0 c 0.008,-0.19727 0.0483,-0.23739 0.10231,-0.10231 0.0489,0.12224 0.0429,0.26829 -0.0134,0.32456 -0.0563,0.0563 -0.0963,-0.0438 -0.0889,-0.22225 z m -12.7,-1.18533 c 0.008,-0.19728 0.0482,-0.23739 0.10231,-0.10232 0.0489,0.12225 0.0429,0.2683 -0.0134,0.32457 -0.0563,0.0563 -0.0963,-0.0438 -0.0889,-0.22225 z m 12.53067,0 c 0.008,-0.19728 0.0482,-0.23739 0.10231,-0.10232 0.0489,0.12225 0.0429,0.2683 -0.0134,0.32457 -0.0563,0.0563 -0.0963,-0.0438 -0.0889,-0.22225 z m -0.16933,-1.016 c 0.008,-0.19728 0.0482,-0.23739 0.1023,-0.10232 0.0489,0.12225 0.0429,0.2683 -0.0134,0.32457 -0.0563,0.0563 -0.0963,-0.0438 -0.0889,-0.22225 z m -12.192,-0.16934 c 0.008,-0.19727 0.0482,-0.23739 0.1023,-0.10231 0.0489,0.12224 0.0429,0.26829 -0.0134,0.32456 -0.0563,0.0563 -0.0963,-0.0438 -0.0889,-0.22225 z m 12.02266,-1.016 c 0.008,-0.19727 0.0482,-0.23739 0.10231,-0.10231 0.0489,0.12224 0.0429,0.26829 -0.0134,0.32456 -0.0563,0.0563 -0.0963,-0.0438 -0.0889,-0.22225 z m 198.233651,-18.31592 c 1.513416,-0.0281 3.989917,-0.0281 5.503333,0 1.513417,0.0281 0.275167,0.051 -2.751666,0.051 -3.026834,0 -4.265084,-0.023 -2.751667,-0.051 z m 0.09542,-23.70674 c 1.565893,-0.028 4.080493,-0.0279 5.588,1.2e-4 1.507507,0.028 0.226314,0.0509 -2.847086,0.0508 -3.0734,-5e-5 -4.306807,-0.023 -2.740914,-0.051 z"
         id="path865" />
      <path
         style="fill:#1f262f;stroke-width:0.169333"
         d="m -350.6228,220.68366 v -38.52333 h 15.91733 15.91734 v 5.50333 5.50334 h -9.906 -9.906 v 11.59933 11.59933 h 7.78933 7.78934 v 5.50334 5.50333 h -7.78934 -7.78933 v 15.91734 15.91733 h -6.01134 -6.01133 z m 44.26741,38.05767 c 0.0541,-0.25611 2.80481,-17.42017 6.11276,-38.14233 3.30795,-20.72217 6.05252,-37.84812 6.09904,-38.05767 l 0.0846,-0.381 h 8.79888 8.79888 l 0.0846,0.381 c 0.0465,0.20955 2.79109,17.3355 6.09904,38.05767 3.30795,20.72216 6.0587,37.88622 6.11277,38.14233 l 0.0983,0.46567 h -6.07094 -6.07094 l -1.90833,-12.40367 c -1.04958,-6.82202 -3.16117,-20.74757 -4.69242,-30.94567 -3.24207,-21.59211 -2.97225,-19.85514 -3.06924,-19.75815 -0.0711,0.0711 -3.40551,22.0947 -7.59325,50.15349 -0.973,6.51933 -1.8129,12.10098 -1.86645,12.40367 l -0.0974,0.55033 h -5.50911 -5.50912 z m 59.02593,-38.05985 v -38.54721 l 10.87967,0.068 c 12.04306,0.0752 12.45581,0.10711 15.74035,1.21556 2.10803,0.71142 3.27914,1.41328 4.86708,2.91682 2.15236,2.03798 3.48671,4.74084 4.16755,8.44181 0.38106,2.07135 0.52334,8.3654 0.24929,11.02768 -0.60025,5.83123 -2.70179,9.60274 -6.56694,11.78524 -0.48895,0.2761 -0.889,0.53378 -0.889,0.57264 0,0.0388 0.41339,0.25346 0.91863,0.47689 3.3671,1.48909 5.79628,4.44665 6.94903,8.46049 0.81382,2.83369 0.97557,4.95977 0.89038,11.70298 -0.0681,5.39085 -0.11763,6.27229 -0.42819,7.62 -1.64531,7.13993 -5.59273,10.92767 -12.90185,12.38 -1.23861,0.24612 -3.00375,0.29579 -12.65766,0.35619 l -11.21834,0.0702 z m 22.01334,26.99009 c 1.71171,-0.81622 2.49034,-1.91052 2.97006,-4.17418 0.29483,-1.39123 0.34539,-10.65376 0.069,-12.64094 -0.47307,-3.40126 -1.64893,-5.04517 -4.20998,-5.88574 -0.97524,-0.32009 -1.59822,-0.37497 -4.96742,-0.43761 l -3.85233,-0.0716 v 11.88172 11.88169 l 4.52967,-0.0546 c 4.4853,-0.0541 4.53878,-0.059 5.461,-0.49872 z m -4.05956,-34.19209 c 2.53526,-0.31249 4.3471,-1.42186 5.17281,-3.16726 0.69442,-1.46787 0.90663,-3.09787 0.90943,-6.98522 0.003,-4.72877 -0.21281,-6.11532 -1.21365,-7.78263 -1.18526,-1.97453 -2.42177,-2.37737 -7.29714,-2.37737 h -3.50256 v 10.24466 10.24467 h 2.24811 c 1.23646,0 2.89381,-0.0796 3.683,-0.17685 z m 37.75689,7.20119 v -38.54804 l 10.96434,0.0768 c 11.51788,0.0806 11.97308,0.10867 14.77433,0.91015 6.14308,1.75764 9.39153,6.15023 10.17671,13.76107 0.28796,2.79114 0.10079,9.07901 -0.33301,11.18772 -0.97984,4.76299 -2.96226,7.72546 -6.44371,9.62931 l -0.88495,0.48394 0.73215,0.28988 c 1.39747,0.55333 3.16074,1.79607 4.33996,3.05877 1.76083,1.88548 2.75902,4.11685 3.52241,7.8741 0.23252,1.14446 0.30712,2.63205 0.3641,7.26098 0.0778,6.31905 -0.0441,8.11921 -0.73432,10.84553 -1.33628,5.27841 -5.00989,9.17709 -10.06201,10.67841 -2.94448,0.87502 -3.2503,0.89452 -15.19766,0.96927 l -11.21834,0.0702 z m 21.96487,27.0355 c 1.33008,-0.60101 2.31481,-1.75356 2.78965,-3.26505 0.37958,-1.20824 0.39148,-1.4366 0.39148,-7.51146 0,-5.45004 -0.0388,-6.40855 -0.29795,-7.366 -0.69737,-2.5762 -1.83531,-3.87941 -4.02005,-4.60393 -0.96303,-0.31936 -1.58238,-0.37397 -4.953,-0.43663 l -3.85233,-0.0716 v 11.88172 11.88169 l 4.52967,-0.0549 c 4.3338,-0.0525 4.56785,-0.0721 5.41253,-0.45385 z m -4.0111,-34.23669 c 2.49901,-0.30802 4.29218,-1.38676 5.10537,-3.07127 0.81537,-1.68906 0.90219,-2.41053 0.89283,-7.41988 -0.008,-4.25477 -0.0392,-4.74748 -0.36136,-5.70894 -0.74812,-2.23228 -1.73717,-3.28676 -3.60243,-3.84068 -0.71186,-0.2114 -1.69753,-0.27171 -4.44024,-0.27171 h -3.52527 v 10.24466 10.24467 h 2.2481 c 1.23648,0 2.89383,-0.0796 3.683,-0.17685 z m 37.58757,7.20418 v -38.52333 h 16.51 16.51 v 5.50333 5.50334 h -10.414 -10.414 v 10.75266 10.75267 h 8.29733 8.29734 v 5.50333 5.50334 h -8.29734 -8.29733 v 11.26066 11.26067 h 10.414 10.414 v 5.50334 5.50333 h -16.51 -16.51 z m 51.64667,17.3646 v -21.15873 l 9.440335,-0.0503 c 9.423231,-0.0502 9.442095,-0.051 10.412172,-0.44274 1.760321,-0.71092 2.513093,-1.35464 3.219145,-2.75279 0.919243,-1.8203 1.011056,-2.76294 0.935076,-9.59928 -0.06106,-5.49353 -0.08978,-5.95578 -0.434899,-6.9972 -0.666073,-2.00998 -1.988668,-3.31644 -3.734156,-3.68862 -0.433223,-0.0924 -5.073921,-0.22298 -10.312672,-0.29022 l -9.525001,-0.12229 v -5.40592 -5.40593 l 10.879668,0.068 c 11.955442,0.0747 12.416554,0.10916 15.621001,1.16805 5.561314,1.83772 8.593278,6.02139 9.401388,12.97256 0.132757,1.14183 0.172703,3.67611 0.119938,7.60784 -0.07053,5.25568 -0.119397,6.07947 -0.450189,7.58899 -0.950248,4.33619 -3.083713,7.54386 -6.268551,9.42474 l -1.048817,0.61941 1.155124,0.60711 c 3.652994,1.91998 5.440867,4.82435 6.420951,10.43074 0.230124,1.3164 0.304258,3.50077 0.407975,12.02267 0.132266,10.86563 0.168267,11.38719 0.936498,13.56458 0.136229,0.3861 0.247684,0.76863 0.247684,0.85004 0,0.0817 -2.724167,0.14805 -6.083978,0.14805 h -6.083995 l -0.288306,-0.97367 c -0.158564,-0.53551 -0.364728,-1.24036 -0.458115,-1.56633 -0.09942,-0.34695 -0.218897,-5.05076 -0.288171,-11.34533 -0.112235,-10.19766 -0.136703,-10.81958 -0.474134,-12.04877 -0.641756,-2.33776 -1.4637,-3.56841 -2.974526,-4.45363 -1.27166,-0.74509 -2.455994,-0.93894 -5.736354,-0.93894 h -3.012423 v 15.66334 15.66333 h -6.011334 -6.011334 z M -198.05345,120.59945 c 0,-19.38062 -0.0153,-20.43179 -0.29634,-20.35537 -0.16298,0.0443 -8.41163,4.85598 -18.33033,10.69257 l -18.034,10.61198 -0.0429,-24.247128 c -0.0236,-13.335922 -0.0145,-24.275545 0.0202,-24.310275 0.0347,-0.03473 7.63594,3.643612 16.89158,8.174091 9.25564,4.53048 17.4817,8.539601 18.28015,8.909159 l 1.45172,0.671925 20.60287,-12.120371 c 11.33159,-6.666205 20.64147,-12.120371 20.68863,-12.120371 0.0472,0 0.0825,10.191751 0.0784,22.648334 l -0.007,22.648336 -19.43237,13.75771 c -10.6878,7.56675 -19.98091,14.14419 -20.65136,14.61655 l -1.21902,0.85882 z m -36.74534,-69.463589 v -21.4658 l 20.65038,-12.146868 c 11.3577,-6.680777 20.6922,-12.1468676 20.74333,-12.1468676 0.0511,0 0.093,10.5551516 0.093,23.4558936 v 23.455893 l -0.41604,-0.104418 c -0.32802,-0.08233 -4.69584,2.066495 -20.64523,10.156773 -11.12605,5.643656 -20.27334,10.261194 -20.32729,10.261194 -0.054,0 -0.0981,-9.659611 -0.0981,-21.4658 z"
         id="path863" />
    </g>
  </g>
</svg>
